<svg width="52" height="52" viewBox="0 0 52 52" fill="none" xmlns="http://www.w3.org/2000/svg">
<path d="M25.675 51.35C39.8549 51.35 51.35 39.8549 51.35 25.675C51.35 11.4951 39.8549 0 25.675 0C11.4951 0 0 11.4951 0 25.675C0 39.8549 11.4951 51.35 25.675 51.35Z" fill="#39A900"/>
<path d="M32.8154 23.8954V33.3054C32.8154 34.9754 31.7754 36.0254 30.1054 36.0254H15.4454C13.8354 36.0254 12.7754 34.9654 12.7754 33.3654V14.3554C12.7754 13.1554 13.4454 12.2654 14.6154 11.9554C15.0054 11.8554 15.4254 11.7854 15.8254 11.7854C20.5454 11.7754 25.2554 11.7854 29.9754 11.7754C30.9154 11.7754 31.7254 12.0154 32.3154 12.7854C32.6854 13.2654 32.8354 13.8154 32.8354 14.4254C32.8354 17.5854 32.8354 20.7354 32.8354 23.8954H32.8154ZM31.4354 23.9354V14.4654C31.4354 13.6354 30.9754 13.1854 30.1454 13.1854H15.8654C15.6954 13.1854 15.5154 13.1854 15.3454 13.1854C14.5754 13.2354 14.1654 13.6754 14.1554 14.4454C14.1554 14.9154 14.1554 15.3954 14.1554 15.8754C14.1554 21.6654 14.1554 27.4454 14.1454 33.2354C14.1454 34.0154 14.5554 34.6554 15.5454 34.6454C20.3754 34.6154 25.2154 34.6354 30.0454 34.6354C30.1554 34.6354 30.2654 34.6554 30.3654 34.6354C30.5954 34.5554 30.8454 34.4854 31.0354 34.3454C31.3754 34.0954 31.4354 33.7054 31.4254 33.2954C31.4254 30.1754 31.4254 27.0654 31.4254 23.9554L31.4354 23.9354Z" fill="white"/>
<path d="M33.6857 15.9945V14.6445C34.5157 14.6945 35.1357 15.0745 35.5957 15.7245C35.9057 16.1645 36.0357 16.6645 36.0357 17.1945C36.0357 22.7445 36.0357 28.2845 36.0357 33.8345C36.0357 34.6345 36.0557 35.4345 36.0357 36.2345C36.0257 37.7945 34.9557 38.8545 33.3957 38.8645H18.6357C17.4657 38.8645 16.5257 38.2445 16.1657 37.2545C16.1257 37.1445 16.1057 37.0345 16.0557 36.8645C16.5357 36.8645 16.9757 36.8645 17.4257 36.8645C17.4957 36.8645 17.5657 36.9545 17.6157 37.0145C17.8657 37.3145 18.1857 37.4645 18.5857 37.4645H33.4457C34.2057 37.4645 34.6557 36.9745 34.6557 36.1645V17.4445C34.6557 16.5945 34.4757 16.3145 33.6857 15.9845V15.9945Z" fill="white"/>
<path d="M18.3762 19.5755C17.6162 19.5755 16.8662 19.5755 16.1062 19.5755C15.8262 19.5755 15.7162 19.4755 15.7262 19.1955C15.7262 18.1455 15.7262 17.0955 15.7262 16.0555C15.7262 15.7955 15.8262 15.6855 16.0862 15.6855C17.6162 15.6855 19.1362 15.6855 20.6562 15.6855C20.9062 15.6855 21.0062 15.7855 21.0062 16.0355C21.0062 17.0955 21.0062 18.1555 21.0062 19.2155C21.0062 19.4855 20.9062 19.5855 20.6462 19.5755C19.8862 19.5755 19.1362 19.5755 18.3762 19.5755Z" fill="white"/>
<path d="M22.7759 24.7344H16.1959C15.7459 24.7344 15.7259 24.7144 15.7259 24.2544C15.7259 23.2544 15.6359 23.3844 16.5859 23.3844H29.3259C29.6726 23.3844 29.8459 23.5611 29.8459 23.9144C29.8459 24.8544 29.9159 24.7344 29.0359 24.7344H22.7759Z" fill="white"/>
<path d="M22.7661 31.084H29.3861C29.8261 31.084 29.8461 31.104 29.8461 31.544C29.8461 32.554 29.9461 32.434 28.9661 32.434H16.2461C15.7361 32.434 15.7261 32.424 15.7261 31.904C15.7261 30.984 15.6361 31.094 16.5361 31.094H22.7661V31.084Z" fill="white"/>
<path d="M22.8255 28.514H29.3755C29.8155 28.514 29.8455 28.534 29.8455 28.964C29.8455 29.984 29.9555 29.854 28.9755 29.854C24.7455 29.854 20.5255 29.854 16.2955 29.854C15.9155 29.854 15.7255 29.674 15.7255 29.304C15.7255 28.404 15.6655 28.514 16.5355 28.514H22.8255Z" fill="white"/>
<path d="M22.7956 20.8244H29.3756C29.8156 20.8244 29.8356 20.8444 29.8356 21.2844C29.8356 22.2744 29.9456 22.1744 28.9556 22.1744H16.2656C15.7256 22.1744 15.7056 22.1744 15.7056 21.6344C15.7056 20.7144 15.6156 20.8244 16.5156 20.8244H22.7756H22.7956Z" fill="white"/>
<path d="M22.7963 27.2855C20.5963 27.2855 18.3863 27.2855 16.1763 27.2855C15.8463 27.2855 15.7263 27.1955 15.7163 26.8455C15.6963 25.9355 15.6863 25.9355 16.5963 25.9355H29.3063C29.8063 25.9355 29.8263 25.9555 29.8263 26.4355C29.8263 27.4055 29.9363 27.2755 28.9763 27.2855H22.7763H22.7963Z" fill="white"/>
<path d="M26.0163 19.6053H22.6463C22.2663 19.6053 22.2163 19.5653 22.2163 19.1753C22.2163 18.1253 22.1063 18.2653 23.1363 18.2553C25.2263 18.2553 27.3063 18.2553 29.3963 18.2553C29.8363 18.2553 29.8563 18.2753 29.8563 18.7153C29.8563 19.7153 29.9763 19.5953 28.9763 19.5953C27.9963 19.5953 27.0063 19.5953 26.0263 19.5953L26.0163 19.6053Z" fill="white"/>
<path d="M26.0156 17.0359H22.6456C22.2556 17.0359 22.2156 16.9959 22.2156 16.6059C22.2156 15.5659 22.1156 15.6859 23.1356 15.6859H29.3556C29.8156 15.6859 29.8456 15.7159 29.8456 16.1559C29.8456 17.1759 29.9656 17.0259 28.9656 17.0359C27.9856 17.0359 26.9956 17.0359 26.0156 17.0359Z" fill="white"/>
</svg>
