<svg width="52" height="52" viewBox="0 0 52 52" fill="none" xmlns="http://www.w3.org/2000/svg">
<path d="M25.675 51.35C39.8549 51.35 51.35 39.8549 51.35 25.675C51.35 11.4951 39.8549 0 25.675 0C11.4951 0 0 11.4951 0 25.675C0 39.8549 11.4951 51.35 25.675 51.35Z" fill="#39A900"/>
<path d="M33.3746 38.1644H17.9946C17.9946 38.1644 17.9646 38.1444 17.9446 38.1444C16.5646 37.7844 15.9346 36.9744 15.9346 35.5544V15.8744C15.9346 15.0344 16.2446 14.3544 16.9246 13.8544C17.3446 13.5444 17.8346 13.4044 18.3546 13.4044H21.2046C21.2246 13.3244 21.2446 13.2544 21.2546 13.1844C21.4746 12.1044 22.4246 11.3044 23.5246 11.3044C24.9646 11.2944 26.4046 11.2944 27.8446 11.3044C28.8746 11.3044 29.7746 12.0144 30.0646 13.0144C30.1046 13.1344 30.1346 13.2644 30.1646 13.4044H30.4546C31.2946 13.4044 32.1346 13.4044 32.9846 13.4044C33.2146 13.4044 33.4446 13.4244 33.6546 13.4844C34.7346 13.7544 35.4246 14.6944 35.4246 15.8644V35.7544C35.4246 36.8044 34.8046 37.6744 33.8446 38.0144C33.6846 38.0644 33.5246 38.1144 33.3646 38.1544L33.3746 38.1644ZM21.1946 14.9844H18.3746C17.8346 14.9844 17.5046 15.3044 17.5046 15.8544V35.7144C17.5046 36.2644 17.8246 36.5844 18.3746 36.5844H32.9646C33.5146 36.5844 33.8346 36.2644 33.8346 35.7144V15.8244C33.8346 15.2944 33.5046 14.9744 32.9746 14.9744H30.3646C30.2946 14.9744 30.2246 14.9744 30.1646 14.9844C30.0746 15.8544 29.8846 16.0244 29.0146 16.0244H22.0346C21.5246 16.0244 21.2046 15.7044 21.1946 15.1844V14.9644V14.9844ZM22.7846 14.4344H28.5746C28.5746 14.1444 28.5846 13.8744 28.5746 13.6044C28.5546 13.1944 28.2246 12.8744 27.8146 12.8744C26.3946 12.8744 24.9746 12.8744 23.5546 12.8744C23.1446 12.8744 22.8146 13.2044 22.7946 13.6044C22.7746 13.8744 22.7946 14.1444 22.7946 14.4344H22.7846Z" fill="white"/>
<path d="M25.9447 19.1933H20.4747C19.8347 19.1933 19.4447 18.5933 19.7147 18.0533C19.8747 17.7433 20.1447 17.6133 20.4847 17.6133H31.4047C32.0347 17.6133 32.4347 18.1733 32.1947 18.7133C32.0447 19.0533 31.7647 19.1933 31.3847 19.1933H25.9347H25.9447Z" fill="white"/>
<path d="M22.6548 27.9029C22.8648 28.0929 23.0348 28.2429 23.1948 28.4129C23.5548 28.7729 23.5648 29.2629 23.2348 29.5829C22.9148 29.8929 22.4348 29.8729 22.0848 29.5329C21.9148 29.3629 21.7648 29.1829 21.5748 28.9729C21.3648 29.2029 21.2148 29.3829 21.0348 29.5529C20.6848 29.8929 20.1948 29.8929 19.8848 29.5529C19.5848 29.2429 19.5948 28.7629 19.9348 28.4229C20.1048 28.2529 20.2748 28.0929 20.5248 27.8629C20.3148 27.6929 20.1248 27.5529 19.9548 27.3929C19.5948 27.0429 19.5748 26.5529 19.8948 26.2229C20.2148 25.9029 20.7048 25.9129 21.0648 26.2729C21.2248 26.4329 21.3748 26.6129 21.5948 26.8429C21.7748 26.6229 21.9148 26.4329 22.0848 26.2629C22.4348 25.9029 22.9348 25.8929 23.2548 26.2129C23.5748 26.5329 23.5548 27.0029 23.2148 27.3629C23.0548 27.5329 22.8748 27.6929 22.6648 27.8929L22.6548 27.9029Z" fill="white"/>
<path d="M29.1043 21.834H31.3943C31.9043 21.834 32.2643 22.164 32.2643 22.624C32.2643 23.084 31.9043 23.414 31.4043 23.414H26.8043C26.2943 23.414 25.9443 23.074 25.9543 22.614C25.9543 22.164 26.3143 21.834 26.8043 21.834H29.1143H29.1043Z" fill="white"/>
<path d="M29.1043 28.6835H26.8143C26.3043 28.6835 25.9443 28.3635 25.9443 27.9035C25.9443 27.4335 26.3043 27.1035 26.8243 27.1035H31.3743C31.9043 27.1035 32.2643 27.4235 32.2643 27.8935C32.2643 28.3635 31.9043 28.6835 31.3743 28.6835H29.1143H29.1043Z" fill="white"/>
<path d="M29.1343 32.3733H31.3943C31.9043 32.3733 32.2643 32.6933 32.2643 33.1533C32.2643 33.6133 31.9143 33.9433 31.4043 33.9433H26.8043C26.2943 33.9433 25.9443 33.6033 25.9443 33.1433C25.9443 32.6833 26.3043 32.3633 26.8143 32.3633H29.1343V32.3733Z" fill="white"/>
<path d="M20.9845 33.113C21.5445 32.553 22.0645 32.023 22.5945 31.503C22.7345 31.363 22.9345 31.253 23.1345 31.213C23.4745 31.143 23.7745 31.313 23.9245 31.603C24.0745 31.893 24.0645 32.253 23.8245 32.493C23.0545 33.273 22.2845 34.053 21.4945 34.823C21.1945 35.113 20.7445 35.083 20.4445 34.793C20.0545 34.423 19.6745 34.043 19.3145 33.663C19.0045 33.333 19.0145 32.853 19.3245 32.553C19.6245 32.263 20.0945 32.253 20.4145 32.553C20.6045 32.733 20.7745 32.933 20.9745 33.133L20.9845 33.113Z" fill="white"/>
<path d="M20.9747 22.7145C21.5547 22.1345 22.1047 21.5945 22.6347 21.0545C22.8447 20.8345 23.0947 20.7345 23.3947 20.7945C23.9847 20.9145 24.2447 21.6345 23.8247 22.0745C23.0747 22.8645 22.2847 23.6345 21.4947 24.4045C21.2047 24.6845 20.7547 24.6645 20.4647 24.3845C20.0647 24.0045 19.6747 23.6145 19.2947 23.2145C19.0047 22.9045 19.0247 22.4445 19.3147 22.1445C19.6147 21.8345 20.0847 21.8145 20.4047 22.1145C20.6047 22.2945 20.7747 22.5145 20.9647 22.7245L20.9747 22.7145Z" fill="white"/>
</svg>
