<svg width="52" height="52" viewBox="0 0 52 52" fill="none" xmlns="http://www.w3.org/2000/svg">
<circle cx="25.9865" cy="25.9875" r="25.675" fill="#39A900"/>
<g filter="url(#filter0_b_2603_11160)">
<path d="M13 35.6172C13 30.4278 13 25.2384 13 20.049C13.0277 19.9817 13.0673 19.9143 13.0871 19.843C13.4991 18.2307 14.6836 17.2879 16.3513 17.2681C17.3179 17.2562 18.2884 17.2681 19.259 17.2642C19.869 17.2642 20.4751 17.2642 21.1366 17.2642C21.1366 16.8245 21.1683 16.4521 21.1327 16.0876C21.0337 15.0616 21.4575 14.3724 22.4082 14H29.4634C31.2619 14.4754 30.7588 15.9846 30.8737 17.2642C31.0916 17.2642 31.2698 17.2642 31.452 17.2642C32.8306 17.2642 34.2052 17.2642 35.5837 17.2642C36.3047 17.2642 36.9781 17.4305 37.5842 17.8465C38.3607 18.3852 38.7608 19.1617 38.9866 20.045V35.6132C38.8162 36.0371 38.6895 36.4887 38.4637 36.8809C37.9408 37.7959 37.0613 38.2 36.075 38.4139H15.9116C15.7017 38.3545 15.4877 38.303 15.2778 38.2356C13.9943 37.8197 13.3129 36.8769 13 35.6132V35.6172ZM14.6321 26.2287C14.6202 26.4189 14.6083 26.5456 14.6083 26.6724C14.6083 29.4137 14.6044 32.1549 14.6123 34.8962C14.6162 36.1599 15.2421 36.7779 16.5177 36.7779C22.8598 36.7818 29.202 36.7818 35.5441 36.7779C36.7207 36.7779 37.3822 36.1163 37.3862 34.9398C37.3941 32.1787 37.3941 29.4176 37.3941 26.6566C37.3941 26.514 37.3703 26.3753 37.3545 26.2485H29.1624C29.606 28.562 27.9343 30.099 26.3577 30.2456C25.403 30.3327 24.5434 30.0831 23.8304 29.4256C22.8995 28.562 22.5984 27.4805 22.844 26.2287H14.6321ZM37.3782 24.6006C37.3782 23.2577 37.3862 22.0297 37.3782 20.7977C37.3703 19.4944 36.7603 18.8844 35.4491 18.8844C29.1267 18.8844 22.8004 18.8844 16.4781 18.8844C15.2619 18.8844 14.6162 19.538 14.6083 20.7502C14.6044 21.8514 14.6321 22.9527 14.5964 24.05C14.5806 24.5135 14.7509 24.6046 15.1748 24.6046C21.7388 24.5927 28.3067 24.5967 34.8707 24.5967C35.6867 24.5967 36.5028 24.5967 37.3822 24.5967L37.3782 24.6006ZM29.1822 17.2523C29.3525 15.8698 29.1544 15.636 27.8432 15.636C26.5756 15.636 25.308 15.6717 24.0403 15.6242C23.0817 15.5885 22.5033 15.842 22.8361 17.2523H29.1822ZM25.9774 28.665C27.043 28.6729 27.8551 27.6113 27.562 26.6011C27.4867 26.3397 27.3718 26.197 27.0668 26.205C26.3419 26.2287 25.617 26.1931 24.896 26.2327C24.7375 26.2406 24.5038 26.4228 24.4523 26.5734C24.1116 27.5716 24.9198 28.6571 25.9814 28.665H25.9774Z" fill="white"/>
</g>
<defs>
<filter id="filter0_b_2603_11160" x="9" y="10" width="33.9863" height="32.4141" filterUnits="userSpaceOnUse" color-interpolation-filters="sRGB">
<feFlood flood-opacity="0" result="BackgroundImageFix"/>
<feGaussianBlur in="BackgroundImageFix" stdDeviation="2"/>
<feComposite in2="SourceAlpha" operator="in" result="effect1_backgroundBlur_2603_11160"/>
<feBlend mode="normal" in="SourceGraphic" in2="effect1_backgroundBlur_2603_11160" result="shape"/>
</filter>
</defs>
</svg>
