<svg width="52" height="52" viewBox="0 0 52 52" fill="none" xmlns="http://www.w3.org/2000/svg">
<path d="M25.675 51.35C39.8549 51.35 51.35 39.8549 51.35 25.675C51.35 11.4951 39.8549 0 25.675 0C11.4951 0 0 11.4951 0 25.675C0 39.8549 11.4951 51.35 25.675 51.35Z" fill="#39A900"/>
<path d="M37.2658 34.0255C37.3658 34.6455 37.4558 35.2355 37.5458 35.8155C37.5658 35.9555 37.5858 36.0855 37.6158 36.2255C37.6658 36.4655 37.6158 36.6655 37.4158 36.7955C37.2158 36.9255 37.0258 36.8655 36.8358 36.7355C36.0258 36.1655 35.2158 35.6055 34.4058 35.0355C34.1658 34.8655 33.9058 34.7155 33.6758 34.5255C33.2158 34.1155 32.6858 34.0055 32.0758 34.0155C28.5758 34.0455 25.0758 34.0255 21.5658 34.0255C20.5358 34.0255 19.9658 33.4555 19.9658 32.4355V30.7055C19.3358 30.7355 18.7358 30.5855 18.1458 31.0155C17.0158 31.8355 15.8158 32.5855 14.6458 33.3655C14.4358 33.5055 14.2358 33.6255 13.9958 33.4555C13.7758 33.2955 13.7858 33.0855 13.8258 32.8455C13.9558 32.1455 14.0558 31.4455 14.1858 30.6955H13.0758C11.9658 30.6955 11.4258 30.1455 11.4258 29.0355V19.0555C11.4258 17.9955 11.9858 17.4355 13.0658 17.4355C18.9358 17.4355 24.7958 17.4355 30.6658 17.4355C31.7458 17.4355 32.2958 17.9855 32.2958 19.0555V20.7555H38.3258C39.3158 20.7555 39.8958 21.3355 39.8958 22.3155V32.4655C39.8958 33.4555 39.3158 34.0255 38.3258 34.0255H37.2558H37.2658ZM36.5358 35.4055C36.4458 34.8055 36.3658 34.2755 36.2858 33.7455C36.2258 33.2955 36.3858 33.1055 36.8558 33.0955H38.3158C38.8358 33.0955 38.9858 32.9555 38.9858 32.4255V22.3355C38.9858 21.8155 38.8458 21.6755 38.3158 21.6755C32.7358 21.6755 27.1558 21.6755 21.5758 21.6755C21.0558 21.6755 20.9158 21.8155 20.9158 22.3455V32.4355C20.9158 32.9655 21.0558 33.1055 21.5858 33.1055C24.9658 33.1055 28.3558 33.1355 31.7358 33.0755C32.7958 33.0555 33.6958 33.2555 34.5058 33.9555C35.1158 34.4755 35.8158 34.8955 36.5558 35.4055H36.5358ZM31.3758 20.7455V18.9155C31.3758 18.5155 31.1958 18.3455 30.7858 18.3455C24.8258 18.3455 18.8758 18.3455 12.9158 18.3455C12.5158 18.3455 12.3458 18.5155 12.3458 18.9255V29.1955C12.3458 29.6055 12.5158 29.7755 12.9158 29.7755H14.4558C15.0958 29.7755 15.2258 29.9255 15.1358 30.5455C15.1258 30.6255 15.1058 30.6955 15.0958 30.7755C15.0258 31.1955 14.9558 31.6155 14.8758 32.1055C15.0458 32.0055 15.1458 31.9455 15.2358 31.8755C16.1858 31.2355 17.1358 30.5855 18.1058 29.9655C18.2958 29.8455 18.5358 29.7855 18.7658 29.7655C19.1558 29.7355 19.5458 29.7655 19.9658 29.7655V22.3355C19.9658 21.3055 20.5358 20.7355 21.5658 20.7355H31.3658L31.3758 20.7455Z" fill="white" stroke="white" stroke-width="0.27" stroke-miterlimit="10"/>
<path d="M35.1751 25.9748C35.9351 25.9748 36.5751 26.6248 36.5751 27.3748C36.5751 28.1248 35.9351 28.7948 35.1651 28.7948C34.3951 28.7948 33.7451 28.1548 33.7451 27.3748C33.7451 26.6048 34.3951 25.9648 35.1751 25.9648V25.9748ZM35.6451 27.3948C35.6451 27.1248 35.4351 26.9048 35.1551 26.9048C34.8951 26.9048 34.6851 27.1148 34.6751 27.3648C34.6651 27.6348 34.8751 27.8648 35.1451 27.8648C35.4151 27.8648 35.6351 27.6548 35.6451 27.3848V27.3948Z" fill="white" stroke="white" stroke-width="0.27" stroke-miterlimit="10"/>
<path d="M31.3456 27.3646C31.3556 28.1346 30.7156 28.7846 29.9456 28.7946C29.1756 28.8046 28.5256 28.1646 28.5156 27.3946C28.5156 26.6246 29.1556 25.9746 29.9256 25.9746C30.6756 25.9746 31.3256 26.6046 31.3356 27.3646H31.3456ZM29.9256 27.8746C30.1956 27.8746 30.4156 27.6646 30.4156 27.3946C30.4156 27.1246 30.2056 26.9046 29.9356 26.9046C29.6656 26.9046 29.4456 27.1146 29.4456 27.3846C29.4456 27.6546 29.6556 27.8746 29.9256 27.8746Z" fill="white" stroke="white" stroke-width="0.27" stroke-miterlimit="10"/>
<path d="M26.1257 27.3746C26.1257 28.1446 25.4857 28.8046 24.7157 28.7946C23.9557 28.7946 23.3157 28.1646 23.3057 27.3946C23.3057 26.6246 23.9457 25.9746 24.7157 25.9746C25.4757 25.9746 26.1157 26.6146 26.1257 27.3746ZM25.1957 27.4046C25.1957 27.1346 24.9857 26.9146 24.7157 26.9046C24.4457 26.9046 24.2257 27.1146 24.2157 27.3846C24.2157 27.6546 24.4257 27.8746 24.6957 27.8846C24.9657 27.8846 25.1857 27.6746 25.1957 27.4046Z" fill="white" stroke="white" stroke-width="0.27" stroke-miterlimit="10"/>
</svg>
