<svg width="152" height="31" viewBox="0 0 152 31" fill="none" xmlns="http://www.w3.org/2000/svg">
<path d="M24.2874 10.8258L22.3593 11.5594L22.1736 12.0822L21.7417 12.3644C21.6193 10.7565 21.5404 10.1187 21.5062 10.1187L22.2027 10.1094L23.4855 8.53794L21.6201 9.34151L21.4521 9.88866L19.6215 11.2822C19.6621 11.6265 19.7667 12.6729 19.6962 13.6972L20.1011 13.4237C20.2761 21.0815 16.7892 23.9622 16.7892 23.9622C15.9077 23.5537 15.68 23.2544 15.68 23.2544C18.8603 19.6965 18.7144 14.5529 18.7087 14.3694L18.3736 14.5915C18.3736 14.5915 18.5109 12.9644 18.4213 12.1951L17.835 12.6415C17.8215 12.1158 17.7909 11.6787 17.7553 11.3737C18.1097 11.3972 18.4754 11.3437 18.7756 11.1265C19.0922 10.8958 19.2601 10.2158 19.3128 9.92366C19.3654 9.63294 19.3035 9.53437 19.1278 9.42009C18.952 9.30651 18.5821 8.97009 18.432 8.81866C18.432 8.81866 18.735 8.68794 19.4444 9.02223C20.2099 9.3858 20.7912 9.20866 21.4443 8.23651L20.6603 8.35151L20.7293 7.80866C20.7421 7.81437 20.7556 7.82151 20.7698 7.83009C20.8787 7.9058 21.2494 8.04223 21.4251 8.07723C21.6016 8.11294 21.5966 8.08723 21.7076 8.15366C21.8186 8.21866 21.9132 8.24651 21.9715 8.21866C21.9715 8.21866 22.4091 8.4658 22.5848 8.21866C22.5848 8.21866 22.7541 8.32009 22.8395 8.3508C22.9711 8.39937 23.1839 8.47509 23.2529 8.46151C23.3233 8.44794 23.4905 8.51937 23.5175 8.53223C23.7936 8.67151 23.9622 8.59937 24.0013 8.53223C24.0419 8.4658 23.8299 8.2458 23.6662 8.10866C23.5033 7.97151 23.3624 7.94509 23.3624 7.94509C23.4158 7.90937 23.4023 7.8558 23.2963 7.72794C23.191 7.59866 22.8438 7.42723 22.8438 7.42723C22.8481 7.32509 22.4511 7.07794 22.2148 6.89723C21.9751 6.7158 22.0733 6.72509 21.8221 6.46509C21.5717 6.20294 20.4219 5.28723 19.8492 4.87723C19.2772 4.46723 17.7063 3.26509 16.3623 2.83151C15.0212 2.39723 14.2264 2.4958 13.6594 2.84937C13.0909 3.20294 13.2318 3.6758 13.3343 3.96794C13.4339 4.26009 13.6295 4.62651 13.7441 4.85151C13.8579 5.07723 13.7654 5.07294 13.7128 5.10937C13.6601 5.14294 13.7163 5.23223 13.6651 5.22294C13.6124 5.21437 13.5797 5.2808 13.5136 5.3558C13.4808 5.39366 13.3834 5.42651 13.2567 5.45223C13.2318 5.3458 13.298 5.2658 13.298 5.2658C13.209 5.21366 13.0568 5.19651 13.0568 5.19651C13.0753 5.15937 13.145 5.13366 13.145 5.13366C13.0483 5.10866 12.8633 5.14151 12.8633 5.14151C12.8932 5.09366 12.9195 5.0858 12.9195 5.0858C12.7459 5.02651 12.5908 5.16794 12.5282 5.23723C12.4513 5.09937 12.3531 5.00223 12.2557 4.91009C12.1511 4.81223 12.0977 4.6708 11.9853 4.56009C11.9853 4.56009 12.0771 4.42009 12.0109 4.28009C11.9462 4.1408 11.7662 4.02866 11.6609 4.00223C11.6609 4.00223 11.7541 3.95437 11.7406 3.84866C11.7278 3.74294 11.6289 3.70294 11.5229 3.73723C11.4161 3.76937 11.2923 3.76937 11.2127 3.84294C11.2127 3.84294 11.1259 3.85223 11.0583 3.84366C11.1451 3.55294 11.1885 3.1558 10.6919 2.84866C10.1248 2.49509 9.33295 2.39723 7.9897 2.8308C6.64715 3.26509 5.07551 4.46651 4.5042 4.87651C3.93218 5.28651 2.78102 6.20223 2.53271 6.46437C2.28014 6.72437 2.3769 6.71509 2.14069 6.89651C1.90235 7.07723 1.50606 7.32437 1.51033 7.42651C1.51033 7.42651 1.16313 7.59866 1.05712 7.72723C0.951825 7.85509 0.938307 7.90866 0.990244 7.94437C0.990244 7.94437 0.850796 7.9708 0.687158 8.10794C0.524231 8.24509 0.312923 8.46509 0.352054 8.53151C0.392608 8.59866 0.558381 8.6708 0.836566 8.53151C0.862179 8.51866 1.03009 8.44723 1.10052 8.4608C1.17096 8.47366 1.38298 8.39866 1.5146 8.35009C1.59998 8.31866 1.77002 8.21794 1.77002 8.21794C1.94575 8.46509 2.38188 8.21794 2.38188 8.21794C2.4388 8.24509 2.53627 8.21794 2.64513 8.15294C2.7554 8.08651 2.75113 8.11223 2.92616 8.07651C3.10331 8.04151 3.47399 7.9058 3.58284 7.82937C3.59778 7.81794 3.61344 7.81151 3.62696 7.80651L3.69739 8.35151L2.91335 8.23651C3.56435 9.20866 4.14633 9.38651 4.91187 9.02223C5.62192 8.68794 5.92501 8.81866 5.92501 8.81866C5.7756 8.97009 5.40421 9.30651 5.22919 9.42009C5.05345 9.53509 4.99156 9.63294 5.04492 9.92366C5.09685 10.2158 5.26334 10.8958 5.58208 11.1265C5.88232 11.3437 6.24801 11.3965 6.60233 11.3737C6.56675 11.6779 6.53687 12.1158 6.52193 12.6415L5.92999 12.1908C5.84034 12.9594 5.97694 14.5915 5.97694 14.5915L5.64255 14.3694C5.63544 14.5537 5.49101 19.6965 8.67271 23.2544C8.67271 23.2544 8.4429 23.5537 7.56281 23.9622C7.56281 23.9622 4.07447 21.0808 4.25234 13.4237L4.65717 13.6972C4.58531 12.6701 4.6906 11.6201 4.73045 11.2787L2.90552 9.88866L2.73691 9.34151L0.871428 8.53794L2.15563 10.1094L2.85145 10.1187C2.81588 10.1187 2.73691 10.7565 2.61382 12.3644L2.18338 12.0822L1.99769 11.5594L0.0703125 10.8258L1.4342 12.3544L2.11223 12.3115C2.11223 12.3115 1.41784 19.0908 3.7102 22.7387C5.61979 25.7737 8.39737 25.7979 10.9259 24.0929C10.8363 24.3894 10.5311 25.2715 9.67659 26.8794C9.67659 26.8794 10.1696 26.8794 10.6976 26.9694C10.6976 26.9694 10.593 27.4108 10.5375 27.5437C10.4834 27.6801 10.4926 27.9037 10.7523 27.9158C11.0134 27.9237 11.3521 27.9565 11.3521 27.9565C11.3521 27.9565 11.3059 28.2751 11.2987 28.4444C11.2909 28.6729 11.2689 28.7679 12.1753 28.8065C13.1251 28.7679 13.0632 28.6729 13.0539 28.4444C13.0468 28.2751 13.0034 27.9565 13.0034 27.9565C13.0034 27.9565 13.3428 27.9244 13.6032 27.9158C13.8629 27.9037 13.8721 27.6801 13.8174 27.5437C13.764 27.4101 13.6551 26.9694 13.6551 26.9694C14.1845 26.8794 14.6775 26.8794 14.6775 26.8794C13.8216 25.2658 13.515 24.3865 13.4246 24.0929C15.9553 25.7972 18.735 25.7765 20.646 22.7387C22.9377 19.0908 22.2433 12.3115 22.2433 12.3115L22.9213 12.3544L24.2874 10.8258ZM13.2532 8.20151C13.3286 7.86009 13.3898 7.57294 13.4602 7.62151C13.5299 7.67009 13.6537 7.67509 13.6978 7.61794C13.7427 7.55866 13.7555 7.55152 13.791 7.61223C13.8266 7.67366 14.0372 7.7758 14.1788 7.53294C14.3197 7.29009 14.2798 7.41366 14.3197 7.50651C14.3602 7.59866 14.4698 7.63866 14.5929 7.54151C14.7159 7.44509 14.8127 7.35937 14.9009 7.3158C14.9877 7.27294 14.992 7.29437 15.0404 7.2058C15.0895 7.11651 15.1684 7.07651 15.172 7.01937C15.1763 6.96151 15.1193 6.8958 15.204 6.85151C15.2873 6.80723 15.3271 6.7758 15.4025 6.81151C15.4779 6.84723 15.4986 6.7758 15.5384 6.82437C15.5775 6.87294 15.6295 6.87794 15.6793 6.82437C15.7277 6.77151 15.7632 6.68794 15.8201 6.78509C15.8771 6.88151 16.0044 6.90366 16.0307 6.85509C16.0585 6.80723 16.0798 6.80223 16.1147 6.87794C16.1503 6.95294 16.2776 7.0108 16.4142 6.98866C16.4142 6.98866 16.5416 7.16509 16.6967 7.13866C16.8518 7.11151 16.9123 7.03294 16.9158 6.92794C16.9208 6.82151 16.8632 6.46437 16.9685 6.54223C17.0745 6.62151 17.0702 6.58651 17.1001 6.52366C17.1314 6.46366 17.1798 6.52794 17.2331 6.51437C17.2858 6.50294 17.2765 6.43509 17.3647 6.52366C17.4537 6.61294 17.4615 6.65651 17.5455 6.67866C17.6287 6.70009 17.6643 6.72294 17.7525 6.8158C17.8414 6.90866 17.9382 7.01009 18.0954 6.95223C18.0954 6.95223 18.1965 7.08437 18.3032 7.0758C18.3032 7.0758 18.5188 7.3108 18.6418 7.2758C18.6418 7.2758 18.8524 7.36294 18.9236 7.35509C18.9947 7.34651 19.0075 7.29866 19.0524 7.32294C19.0958 7.3508 19.0787 7.23937 19.1441 7.31437C19.2089 7.39009 19.3291 7.52294 19.4038 7.5008C19.4038 7.5008 19.581 7.6508 19.7162 7.66651C19.8535 7.68509 19.8933 7.7258 19.9367 7.7258C19.9801 7.7258 19.9588 7.68151 20.0385 7.74366C20.1167 7.8058 20.2327 7.8358 20.3074 7.8058C20.3821 7.77366 20.412 7.77794 20.4796 7.78723C20.5016 7.79009 20.5301 7.78723 20.5614 7.78437C20.3401 8.04866 20.0513 8.25866 19.5141 8.09223C18.8019 7.8708 18.5885 7.97651 18.4412 8.12723C18.2911 8.27651 17.9659 8.7108 17.8763 8.98509C17.7902 9.25866 17.8343 9.4708 18.3601 10.0901C18.3601 10.0901 17.6735 10.1337 16.7678 9.84151C15.8607 9.5508 15.024 9.44437 14.1795 9.82509C14.0329 9.89151 13.897 9.95223 13.7704 10.0158C13.6765 9.92009 13.4424 9.67794 13.3556 9.56794C13.3556 9.56794 13.4125 9.2858 13.4083 9.12151C13.4033 8.9358 13.3955 8.84866 13.3293 8.75509C13.2617 8.6658 13.1799 8.54151 13.2532 8.20151ZM16.8802 11.1944C16.4804 11.4479 15.8009 11.7458 14.7942 11.7458C14.0087 11.7458 13.4033 11.5644 12.9735 11.3622C13.1521 11.2522 13.8444 10.8572 14.7159 10.8344C15.7284 10.8072 16.1688 10.9479 16.6533 11.1179C16.7194 11.1415 16.797 11.1665 16.8802 11.1944ZM12.7096 9.7508C12.7153 9.75366 12.7203 9.75509 12.726 9.75723C12.9045 9.82794 13.0902 9.80151 13.0902 9.80151C13.1479 9.83723 13.3983 10.0737 13.4887 10.1629C13.2332 10.3022 13.0077 10.4479 12.7871 10.6358C12.7338 10.4165 12.6555 10.0587 12.6783 9.93866C12.6911 9.87151 12.7025 9.80723 12.7096 9.7508ZM11.4553 4.91723C11.5542 4.98294 11.7463 5.09651 11.8131 5.2608C11.8316 5.31009 11.8466 5.35723 11.8594 5.40223C11.7192 5.36723 11.6111 5.36509 11.5286 5.37866C11.3855 5.14651 11.2262 4.99509 11.0775 4.89509C11.2333 4.87294 11.3678 4.85794 11.4553 4.91723ZM10.6079 4.8508C10.61 4.8458 10.6129 4.84223 10.615 4.83437C10.736 5.01366 10.9971 5.32437 11.4154 5.41509C11.372 5.43651 11.3393 5.46366 11.3158 5.48723C11.0889 5.45723 10.8897 5.41509 10.8363 5.35437C10.7701 5.27937 10.7402 5.21294 10.6869 5.22151C10.6349 5.2308 10.6911 5.1408 10.6392 5.10794C10.5859 5.07294 10.4955 5.07651 10.6079 4.8508ZM10.4336 7.68509C10.4521 7.80437 10.4841 7.9358 10.546 8.06651C10.5296 8.09652 10.514 8.12651 10.4991 8.15794C10.4635 7.8858 10.3525 7.70866 10.3304 7.6758C10.3667 7.68794 10.4016 7.68937 10.4336 7.68509ZM5.99473 10.0929C6.52264 9.47294 6.56604 9.26151 6.47853 8.98794C6.39031 8.71366 6.06517 8.27937 5.91505 8.13009C5.76564 7.98009 5.55504 7.87366 4.84144 8.09509C4.30428 8.2608 4.01755 8.05294 3.79486 7.78794C3.82474 7.79009 3.85107 7.79223 3.8717 7.78937C3.93929 7.78009 3.96846 7.77651 4.0453 7.80794C4.11929 7.83794 4.23455 7.80794 4.31281 7.7458C4.3925 7.68437 4.37044 7.72794 4.41384 7.72794C4.45795 7.72794 4.4978 7.68723 4.63369 7.66866C4.77029 7.65223 4.94673 7.50294 4.94673 7.50294C5.02215 7.52437 5.13954 7.39151 5.20713 7.31651C5.2733 7.24151 5.2548 7.35294 5.29962 7.32509C5.34302 7.3008 5.35725 7.34866 5.42698 7.35723C5.4967 7.36509 5.70943 7.27794 5.70943 7.27794C5.8318 7.31366 6.0488 7.07794 6.0488 7.07794C6.15339 7.08723 6.25513 6.95437 6.25513 6.95437C6.41307 7.01223 6.51126 6.91009 6.59948 6.81794C6.68628 6.72509 6.72185 6.70223 6.80581 6.6808C6.88976 6.65794 6.89759 6.61437 6.9851 6.5258C7.07403 6.43723 7.06407 6.5058 7.11743 6.51651C7.17008 6.53009 7.21917 6.46509 7.24977 6.5258C7.28178 6.58866 7.2768 6.62366 7.38139 6.54437C7.48597 6.4658 7.42977 6.82294 7.43404 6.93009C7.44044 7.03509 7.50092 7.11437 7.65459 7.1408C7.80898 7.16794 7.93705 6.9908 7.93705 6.9908C8.07223 7.01223 8.201 6.95509 8.23586 6.88009C8.27144 6.80437 8.29349 6.80937 8.31911 6.85723C8.34543 6.90651 8.47349 6.88366 8.53184 6.78723C8.58804 6.69009 8.62219 6.77294 8.672 6.82651C8.72038 6.88009 8.77303 6.87509 8.81287 6.82651C8.852 6.77794 8.87548 6.84866 8.95018 6.81366C9.02417 6.77794 9.06473 6.80937 9.14726 6.85366C9.2305 6.89794 9.17429 6.96366 9.17856 7.02151C9.18283 7.07866 9.26323 7.11866 9.3109 7.20794C9.35999 7.29651 9.36497 7.27437 9.45177 7.31794C9.53999 7.36151 9.63675 7.44723 9.75984 7.54366C9.87296 7.63223 9.97328 7.5758 10.0209 7.50009C10.0387 7.57866 10.0651 7.70723 10.1028 7.70723C10.1405 7.70723 10.1725 7.60723 10.2002 7.54509C10.2394 7.59937 10.2828 7.5858 10.3255 7.60223C10.3048 7.64223 9.99675 8.26366 10.3724 8.82009H10.3731C10.3909 8.82009 10.4051 8.79723 10.4187 8.76009C10.4578 9.12151 10.4364 9.20294 10.4364 9.20294C10.4364 9.20294 10.2671 9.41937 10.1455 9.80151C9.31161 9.43794 8.48417 9.55223 7.58985 9.83937C6.6813 10.1301 5.99473 10.0929 5.99473 10.0929ZM9.85375 10.8479C9.74916 11.1629 9.61114 11.4858 9.42331 11.7429C8.4927 11.7165 7.85594 11.4379 7.4753 11.1944C7.55925 11.1665 7.63538 11.1415 7.70226 11.1179C8.18677 10.9479 8.62788 10.8079 9.6396 10.8344C9.71288 10.8365 9.78331 10.8429 9.85375 10.8479ZM6.85561 11.3179C6.93672 11.3037 7.01711 11.3001 7.11032 11.2772C7.37071 11.5394 8.10211 12.1244 9.48023 12.1244C11.2646 12.1244 12.176 11.2637 12.176 11.2637C12.176 11.2637 13.086 12.1272 14.8703 12.1272C16.2499 12.1272 16.9798 11.5487 17.2395 11.2872C17.3349 11.3101 17.4138 11.3037 17.4949 11.3172C17.7112 13.1172 17.3519 15.6729 17.3519 15.6729H12.1753H6.9979C6.9979 15.6737 6.64003 13.1179 6.85561 11.3179ZM6.9979 15.9844H12.1753H17.3512C17.3512 15.9844 17.1926 17.9729 16.3481 19.6408H12.1753H8.00108C7.15585 17.9722 6.9979 15.9844 6.9979 15.9844ZM12.1753 24.4965C9.07255 22.2415 8.15974 19.9344 8.15974 19.9344H12.1753H16.1894C16.1894 19.9344 15.2801 22.2415 12.1753 24.4965Z" fill="white"/>
<path d="M14.1154 15.4323C14.2954 15.428 14.4612 15.3637 14.6006 15.2565C14.6753 15.2815 14.7514 15.2944 14.8311 15.2915C15.11 15.2887 15.3526 15.1058 15.4857 14.838C15.6123 14.8551 15.7404 14.838 15.8571 14.7758C16.1111 14.6394 16.227 14.3315 16.1722 14.0201C16.1872 14.0108 16.1986 13.9994 16.2121 13.9894C16.4426 13.7958 16.4376 13.413 16.205 13.1287C16.1979 13.1194 16.1915 13.1123 16.1822 13.1051C16.2612 13.0458 16.3138 12.9608 16.3138 12.8608C16.3138 12.6844 16.1018 12.543 15.9069 12.543C15.7141 12.543 15.5013 12.6844 15.5013 12.8608V12.8623C15.5013 12.8723 15.3797 12.9058 15.3099 12.9665C15.211 13.048 15.1847 13.168 15.1712 13.298C15.1356 13.3108 15.1136 13.3223 15.0794 13.3415C15.0318 13.3651 14.9976 13.3994 14.9606 13.4351C14.9037 13.4208 14.8518 13.413 14.792 13.4151C14.7073 13.4158 14.6276 13.4351 14.5508 13.4665C14.4114 13.3708 14.2499 13.3158 14.0748 13.3208C13.5718 13.3287 13.1741 13.8108 13.1848 14.393C13.1962 14.978 13.6138 15.4415 14.1154 15.4323Z" fill="white"/>
<path d="M8.18155 13.9887C8.19364 13.9987 8.20645 14.0101 8.22139 14.0194C8.16661 14.3308 8.28187 14.6387 8.53515 14.7751C8.65041 14.8373 8.77989 14.8544 8.90725 14.8373C9.04029 15.1051 9.28219 15.288 9.56109 15.2908C9.64077 15.2937 9.71761 15.2815 9.7916 15.2558C9.93034 15.363 10.0961 15.4273 10.2761 15.4315C10.7791 15.4408 11.1953 14.9773 11.2074 14.393C11.2174 13.8101 10.819 13.3287 10.316 13.3208C10.1424 13.3158 9.97943 13.3708 9.83856 13.4658C9.76386 13.4351 9.68204 13.4165 9.59666 13.4151C9.53761 13.413 9.47998 13.4208 9.42662 13.4337C9.3882 13.3994 9.34694 13.3651 9.29856 13.3415C9.26512 13.3223 9.22883 13.3094 9.19326 13.298C9.18116 13.168 9.1648 13.048 9.06519 12.9665C8.99547 12.9051 8.85745 12.8723 8.85745 12.8623V12.8608C8.85745 12.6844 8.66179 12.543 8.46827 12.543C8.27333 12.543 8.09688 12.6844 8.09688 12.8608C8.09688 12.9608 8.13815 13.0458 8.21641 13.1051C8.21001 13.1115 8.19933 13.1194 8.19151 13.1287C7.95672 13.4108 7.95032 13.7944 8.18155 13.9887Z" fill="white"/>
<path d="M12.2085 19.4181L12.6382 18.7645L12.5564 18.4553L12.8943 18.5017C12.9171 18.6431 13.0081 18.8053 13.1433 18.8253C13.2799 18.8495 13.5055 18.8253 13.5055 18.8253L13.6335 18.6753C13.4756 18.5238 13.2799 18.396 13.2799 18.396C13.2344 17.4938 13.0772 16.881 12.9612 16.556C12.8488 16.231 12.6987 16.2217 12.4112 16.2595C12.1252 16.2974 11.3483 16.7681 11.3483 16.7681L11.2949 17.221L11.5603 17.2503C11.5603 17.2503 11.4088 17.7581 11.3554 17.941C11.3027 18.1238 11.3483 18.1153 11.4458 18.1845C11.5432 18.2517 11.9139 18.3417 11.9139 18.3417L11.8079 18.8117L12.2085 19.4181Z" fill="white"/>
<path d="M11.1982 13.6806C11.3526 14.5756 11.9268 14.6571 12.1537 14.6521C12.1502 14.9678 12.0961 15.2178 12.0961 15.2178L12.3786 15.4121C12.4092 15.0364 12.4028 14.7385 12.3793 14.5014C13.058 14.4028 13.1968 13.3892 13.1968 13.3892C12.5358 13.6885 12.3964 14.1685 12.3672 14.3864C12.3202 14.0249 12.2341 13.8278 12.1886 13.7464C12.6183 13.6985 12.9513 13.3335 12.9513 12.8892C12.9513 12.6406 12.8467 12.4164 12.6767 12.2592L12.8175 11.9942L12.518 12.0542L12.3949 11.8242L12.1751 12.0021L12.0435 11.8242L11.9026 12.0285L11.6379 11.8785L11.7119 12.1192C11.4288 12.2592 11.2338 12.5514 11.2338 12.8892C11.2338 13.3164 11.544 13.6692 11.9496 13.7399C12.0833 13.9506 12.136 14.2185 12.1509 14.4685C11.7802 13.8742 11.1982 13.6806 11.1982 13.6806ZM12.1296 13.7321C11.9225 13.7321 11.7539 13.3606 11.7539 12.9014C11.7539 12.4456 11.9225 12.0742 12.1296 12.0742C12.3366 12.0742 12.5045 12.4456 12.5045 12.9014C12.5045 13.3606 12.3366 13.7321 12.1296 13.7321Z" fill="white"/>
<path d="M12.8788 21.0465C12.8026 20.8615 12.8026 20.6786 12.8788 20.4922H11.8457C11.7689 20.6786 11.7689 20.8615 11.8457 21.0465H12.8788Z" fill="white"/>
<path d="M11.8467 22.3438C11.7699 22.5288 11.7699 22.9002 11.8467 23.0866H12.8797C12.8036 22.9002 12.8036 22.5295 12.8797 22.3438H11.8467Z" fill="white"/>
<path d="M13.125 21.6028L13.3555 21.2313H11.7768L11.6032 21.0449H11.5313H10.9443L11.0262 21.2313H11.1848L11.3534 21.6028H13.125Z" fill="white"/>
<path d="M13.1124 23.2717H13.0541H12.7922H12.5695H12.3084H12.1405H11.8616H11.7755L11.6802 23.0859H11.333L11.439 23.2974L11.7222 23.4538H13.0839L13.3586 23.2945L13.397 23.0859H13.1743L13.1124 23.2717Z" fill="white"/>
<path d="M55.2103 10.0629C53.7191 8.5958 51.5121 7.81723 49.574 7.81723C44.6834 7.81723 41.8503 11.4994 41.8802 15.9308C41.8802 19.7629 44.1469 23.4758 49.574 23.4758C51.3634 23.4758 53.0033 23.0265 54.6732 21.6194V17.3679H48.8583V14.3744H57.7752V22.9672C55.6877 25.2729 53.093 26.6201 49.574 26.6201C41.9101 26.6201 38.5996 21.5008 38.5996 15.9315C38.5996 9.88366 42.4465 4.73438 49.574 4.73438C52.3474 4.73438 55.1506 5.78223 57.2978 7.90795L55.2103 10.0629Z" fill="white"/>
<path d="M81.8477 15.7353C81.8477 21.4167 78.4042 26.6181 71.1279 26.6181C63.8517 26.6181 60.4082 21.2967 60.4082 15.7653C60.4082 9.36171 64.8698 4.73242 71.1877 4.73242C78.3444 4.76242 81.8477 10.0531 81.8477 15.7353ZM71.1279 23.521C76.338 23.521 78.5244 19.8231 78.5244 15.7946C78.5244 11.9167 76.3082 7.88814 71.1884 7.79814C66.3376 7.79814 63.7322 11.1953 63.7322 15.7946C63.792 19.5231 65.9477 23.521 71.1279 23.521Z" fill="white"/>
<path d="M94.9733 26.6174H91.3562L82.3604 4.79883H86.2557L93.1498 22.4588L100.075 4.79883H103.939L94.9733 26.6174Z" fill="white"/>
<path d="M106.202 24.4158C106.202 27.3515 101.834 27.3515 101.834 24.4158C101.833 21.5151 106.202 21.5151 106.202 24.4158Z" fill="white"/>
<path d="M127.363 23.4831C125.201 25.6231 122.409 26.6181 119.467 26.6181C111.84 26.6181 108.417 21.3424 108.387 15.796C108.357 10.2496 111.96 4.73242 119.467 4.73242C122.289 4.73242 125.022 5.78742 127.153 7.92814L124.902 10.0988C123.4 8.62171 121.418 7.92814 119.467 7.92814C114.122 7.92814 111.69 11.8774 111.72 15.766C111.75 19.6246 114.032 23.4531 119.467 23.4531C121.418 23.4531 123.58 22.6388 125.052 21.1617L127.363 23.4831Z" fill="white"/>
<path d="M151.561 15.7681C151.561 21.4324 148.128 26.6174 140.874 26.6174C133.619 26.6174 130.187 21.3124 130.187 15.7981C130.187 9.41454 134.635 4.79883 140.933 4.79883C148.068 4.82883 151.561 10.1038 151.561 15.7681ZM140.874 23.531C146.068 23.531 148.247 19.8445 148.247 15.8281C148.247 11.9617 146.038 7.94597 140.933 7.85597C136.097 7.85597 133.5 11.2424 133.5 15.8281C133.56 19.5445 135.709 23.531 140.874 23.531Z" fill="white"/>
<path d="M32.2266 0.355469H29.8809V13.4869H32.2266V0.355469Z" fill="#FBD000"/>
<path d="M32.2266 13.4863H29.8809V22.2406H32.2266V13.4863Z" fill="#00549F"/>
<path d="M32.2266 22.2402H29.8809V30.9952H32.2266V22.2402Z" fill="#D21A3A"/>
</svg>
