<svg width="50" height="50" viewBox="0 0 50 50" fill="none" xmlns="http://www.w3.org/2000/svg">
<path d="M25.76 5.54883C26.645 5.65383 27.53 5.72883 28.41 5.86383C30.65 6.20383 32.74 6.98383 34.71 8.08383C36.655 9.17383 38.38 10.5438 39.855 12.2138C41.81 14.4288 43.24 16.9338 44.08 19.7788C44.635 21.6488 44.92 23.5588 44.915 25.5038C44.9 29.4538 43.835 33.1038 41.655 36.4138C39.525 39.6438 36.695 42.0638 33.18 43.6738C31.425 44.4788 29.585 44.9838 27.685 45.2638C27.075 45.3538 26.45 45.3838 25.835 45.4388C25.315 45.4388 24.795 45.4388 24.275 45.4388C23.53 45.3638 22.785 45.3038 22.04 45.2088C19.505 44.8688 17.145 44.0188 14.94 42.7338C12.795 41.4838 10.94 39.8888 9.39497 37.9388C7.27497 35.2638 5.89497 32.2588 5.32997 28.8838C4.52497 24.0388 5.33997 19.4738 7.85997 15.2688C10.38 11.0638 14.015 8.16383 18.665 6.57883C20.38 5.99383 22.15 5.65883 23.965 5.59883C24.04 5.59883 24.115 5.57383 24.19 5.55883H25.75L25.76 5.54883ZM42.27 25.5038C42.26 16.5538 35.205 8.38883 25.185 8.22383C15.97 8.07383 8.08497 15.3438 7.72997 24.8788C7.36997 34.4288 14.975 42.6488 24.85 42.7638C33.78 42.8688 42.145 35.7388 42.275 25.5038H42.27Z" fill="#009D00"/>
<path d="M19.0605 25.5807C21.6605 28.1807 24.2055 30.7207 26.7455 33.2657C27.3605 33.8807 27.3455 34.7307 26.7155 35.2807C26.2355 35.7007 25.4455 35.7007 24.9905 35.2507C22.0605 32.3257 19.1305 29.3957 16.2055 26.4657C15.8055 26.0657 15.7655 25.3457 16.0905 24.8557C16.1755 24.7257 16.2805 24.6107 16.3905 24.5007C19.1905 21.7007 21.9855 18.9007 24.7905 16.1007C25.3605 15.5307 26.0155 15.4357 26.6055 15.8257C27.2205 16.2357 27.3905 17.0407 26.9705 17.6557C26.8455 17.8357 26.7005 18.0007 26.5455 18.1557C24.1705 20.5357 21.7905 22.9107 19.4155 25.2857C19.3155 25.3857 19.1955 25.4707 19.0655 25.5807H19.0605Z" fill="#009D00"/>
<path d="M25.9502 25.5807C28.5502 28.1807 31.0952 30.7207 33.6352 33.2657C34.2502 33.8807 34.2352 34.7307 33.6052 35.2807C33.1252 35.7007 32.3352 35.7007 31.8802 35.2507C28.9502 32.3257 26.0202 29.3957 23.0952 26.4657C22.6952 26.0657 22.6552 25.3457 22.9802 24.8557C23.0652 24.7257 23.1702 24.6107 23.2802 24.5007C26.0802 21.7007 28.8752 18.9007 31.6802 16.1007C32.2502 15.5307 32.9052 15.4357 33.4952 15.8257C34.1102 16.2357 34.2802 17.0407 33.8602 17.6557C33.7352 17.8357 33.5902 18.0007 33.4352 18.1557C31.0602 20.5357 28.6802 22.9107 26.3052 25.2857C26.2052 25.3857 26.0852 25.4707 25.9552 25.5807H25.9502Z" fill="#009D00"/>
</svg>
