<svg width="152" height="63" viewBox="0 0 152 63" fill="none" xmlns="http://www.w3.org/2000/svg">
<path d="M87.5858 33.9069C87.9898 33.6593 88.4377 33.5371 88.9231 33.5371C89.6528 33.5371 90.3104 33.7721 90.8961 34.2453C91.4817 34.7185 91.7761 35.3138 91.7761 36.0345C91.7761 36.3855 91.6853 36.7427 91.5036 37.1156L83.4863 53.9334C83.2233 54.488 82.8287 54.9173 82.3025 55.215C81.7764 55.5127 81.2095 55.6631 80.602 55.6631C79.9944 55.6631 79.4276 55.5127 78.9014 55.215C78.3753 54.9173 77.9807 54.4911 77.7176 53.9334L69.7003 37.1156C69.5375 36.7866 69.4561 36.4262 69.4561 36.0345C69.4561 35.3358 69.7598 34.7435 70.3674 34.261C70.975 33.7784 71.6514 33.5371 72.403 33.5371C72.8885 33.5371 73.3394 33.6593 73.756 33.9069C74.1694 34.1544 74.4888 34.5242 74.7111 35.0161L80.6928 48.1614L86.6463 35.0161C86.8686 34.5242 87.1818 34.1513 87.5889 33.9069H87.5858Z" fill="#4D4D4D"/>
<path d="M94.4348 54.9048C93.9369 54.4003 93.6895 53.714 93.6895 52.8492V36.3166C93.6895 35.4705 93.9369 34.7968 94.4348 34.2923C94.9296 33.7878 95.603 33.5371 96.4548 33.5371C97.3066 33.5371 98.0144 33.7878 98.5186 34.2923C99.0228 34.7968 99.2765 35.4705 99.2765 36.3166V52.8492C99.2765 53.714 99.0228 54.4003 98.5186 54.9048C98.0113 55.4093 97.3223 55.6631 96.4548 55.6631C95.5873 55.6631 94.9296 55.4124 94.4348 54.9048Z" fill="#4D4D4D"/>
<path d="M103.683 54.9718C103.238 54.5111 103.016 53.8531 103.016 52.9945V36.2018C103.016 35.3432 103.238 34.6852 103.683 34.2245C104.127 33.7639 104.766 33.5352 105.596 33.5352H111.731C114.099 33.5352 116.141 33.9801 117.851 34.87C119.561 35.76 120.873 37.0291 121.784 38.6836C122.696 40.335 123.15 42.3028 123.15 44.5841C123.15 46.8653 122.699 48.8676 121.797 50.5315C120.895 52.1954 119.589 53.4645 117.879 54.3451C116.169 55.2224 114.118 55.6643 111.728 55.6643H105.593C104.763 55.6643 104.124 55.4355 103.68 54.9749L103.683 54.9718ZM111.334 51.0204C113.419 51.0204 114.982 50.4908 116.025 49.4348C117.068 48.3788 117.588 46.7619 117.588 44.5872C117.588 42.4125 117.065 40.7987 116.025 39.7521C114.982 38.7055 113.419 38.1822 111.334 38.1822H108.6V51.0204H111.334Z" fill="#4D4D4D"/>
<path d="M146.475 53.2158C146.475 53.8989 146.206 54.4755 145.671 54.9518C145.135 55.4281 144.521 55.6631 143.832 55.6631C143.366 55.6631 142.94 55.5378 142.558 55.2902C142.172 55.0427 141.869 54.6698 141.646 54.1747L140.281 51.0442H130.441L129.044 54.1747C128.822 54.6698 128.512 55.0427 128.117 55.2902C127.722 55.5378 127.29 55.6631 126.827 55.6631C126.138 55.6631 125.515 55.4249 124.96 54.9518C124.403 54.4755 124.124 53.8989 124.124 53.2158C124.124 52.8429 124.215 52.4606 124.396 52.0689L132.414 35.2731C132.677 34.7153 133.065 34.286 133.582 33.9883C134.099 33.6907 134.672 33.5371 135.298 33.5371C135.924 33.5371 136.473 33.6875 136.999 33.9883C137.525 34.2892 137.919 34.7153 138.183 35.2731L146.2 52.0689C146.381 52.4606 146.472 52.8429 146.472 53.2158H146.475ZM138.395 46.7701L135.358 39.8606L132.32 46.7701H138.395Z" fill="#4D4D4D"/>
<path d="M72.1091 17.0923C71.2917 16.641 70.6591 15.9924 70.2112 15.1463C69.7634 14.3034 69.541 13.3132 69.541 12.182C69.541 11.0508 69.7634 10.0763 70.2112 9.23334C70.6591 8.39041 71.2917 7.74177 72.1091 7.2874C72.9264 6.83617 73.8816 6.60742 74.9715 6.60742C76.2774 6.60742 77.4237 6.95211 78.4133 7.64149C78.5887 7.7637 78.7139 7.89844 78.7922 8.04259C78.8705 8.18673 78.9081 8.37161 78.9081 8.59723C78.9081 8.91685 78.8173 9.18633 78.6388 9.40881C78.4603 9.6313 78.241 9.74097 77.9842 9.74097C77.8308 9.74097 77.6899 9.71904 77.5677 9.67203C77.4456 9.62503 77.3015 9.55296 77.1355 9.44955C76.7754 9.23334 76.4372 9.07979 76.1177 8.98579C75.7983 8.89178 75.4694 8.84791 75.1312 8.84791C74.2167 8.84791 73.534 9.12366 73.0862 9.67203C72.6383 10.2235 72.416 11.0602 72.416 12.182C72.416 13.3038 72.6383 14.1561 73.0862 14.7045C73.534 15.256 74.2136 15.5318 75.1312 15.5318C75.4412 15.5318 75.7388 15.4816 76.0269 15.3845C76.315 15.2874 76.6846 15.1338 77.1387 14.9301C77.3548 14.8173 77.5145 14.739 77.6178 14.6982C77.7212 14.6575 77.8433 14.6356 77.9874 14.6356C78.2442 14.6356 78.4634 14.7452 78.6419 14.9677C78.8204 15.1902 78.9112 15.4597 78.9112 15.7793C78.9112 15.9955 78.8737 16.1773 78.7954 16.3277C78.7171 16.4781 78.5918 16.6128 78.4164 16.7351C77.4299 17.4244 76.2806 17.7691 74.9746 17.7691C73.8848 17.7691 72.9296 17.5435 72.1122 17.0891L72.1091 17.0923Z" fill="#4D4D4D"/>
<path d="M81.535 17.0868C80.7176 16.6293 80.0881 15.9806 79.6434 15.1408C79.2018 14.3011 78.9795 13.3171 78.9795 12.1859C78.9795 11.0547 79.2018 10.0676 79.6434 9.22784C80.085 8.38805 80.7145 7.74254 81.535 7.29131C82.3524 6.84008 83.317 6.61133 84.4288 6.61133C85.5405 6.61133 86.5051 6.83694 87.3225 7.29131C88.1399 7.74254 88.7662 8.39118 89.2047 9.22784C89.6431 10.0676 89.8592 11.0516 89.8592 12.1859C89.8592 13.3203 89.6369 14.3042 89.1953 15.1408C88.7537 15.9806 88.1242 16.6293 87.3037 17.0868C86.4863 17.5443 85.528 17.773 84.4256 17.773C83.3232 17.773 82.3493 17.5443 81.5319 17.0868H81.535ZM86.3579 14.7241C86.8214 14.1412 87.0532 13.2952 87.0532 12.1859C87.0532 11.0766 86.8183 10.2306 86.3517 9.654C85.8819 9.07743 85.243 8.78914 84.4319 8.78914C83.6208 8.78914 82.9662 9.0743 82.5027 9.64774C82.0392 10.218 81.8075 11.0641 81.8075 12.1859C81.8075 13.3077 82.0392 14.1569 82.5027 14.7335C82.9662 15.3101 83.6082 15.5983 84.4319 15.5983C85.2555 15.5983 85.8976 15.3069 86.3611 14.7272L86.3579 14.7241Z" fill="#4D4D4D"/>
<path d="M91.1087 17.4244C90.8833 17.1925 90.7705 16.8573 90.7705 16.4186V8.02379C90.7705 7.59449 90.8958 7.2498 91.1494 6.99285C91.4 6.7359 91.7445 6.60742 92.1767 6.60742C92.6088 6.60742 92.969 6.7359 93.2258 6.99285C93.4826 7.2498 93.611 7.59136 93.611 8.02379V15.4284H97.1593C98.055 15.4284 98.5028 15.8232 98.5028 16.6066C98.5028 17.0045 98.3932 17.2991 98.1709 17.4871C97.9485 17.6751 97.6134 17.7691 97.1593 17.7691H92.0827C91.6599 17.7691 91.3374 17.6532 91.1119 17.4244H91.1087Z" fill="#4D4D4D"/>
<path d="M100.47 17.0868C99.6522 16.6293 99.0227 15.9806 98.578 15.1408C98.1364 14.3011 97.9141 13.3171 97.9141 12.1859C97.9141 11.0547 98.1364 10.0676 98.578 9.22784C99.0196 8.38805 99.6491 7.74254 100.47 7.29131C101.287 6.84008 102.252 6.61133 103.363 6.61133C104.475 6.61133 105.44 6.83694 106.257 7.29131C107.074 7.74254 107.701 8.39118 108.139 9.22784C108.578 10.0676 108.794 11.0516 108.794 12.1859C108.794 13.3203 108.571 14.3042 108.13 15.1408C107.688 15.9806 107.059 16.6293 106.238 17.0868C105.421 17.5443 104.463 17.773 103.36 17.773C102.258 17.773 101.284 17.5443 100.466 17.0868H100.47ZM105.289 14.7241C105.753 14.1412 105.985 13.2952 105.985 12.1859C105.985 11.0766 105.75 10.2306 105.283 9.654C104.813 9.07743 104.174 8.78914 103.363 8.78914C102.552 8.78914 101.898 9.0743 101.434 9.64774C100.971 10.218 100.739 11.0641 100.739 12.1859C100.739 13.3077 100.971 14.1569 101.434 14.7335C101.898 15.3101 102.54 15.5983 103.363 15.5983C104.187 15.5983 104.829 15.3069 105.292 14.7272L105.289 14.7241Z" fill="#4D4D4D"/>
<path d="M120.319 7.00066C120.566 7.26075 120.688 7.59917 120.688 8.01593V16.4984C120.688 16.8933 120.576 17.2066 120.35 17.4322C120.125 17.661 119.827 17.7738 119.454 17.7738C119.082 17.7738 118.8 17.661 118.568 17.4322C118.336 17.2035 118.22 16.8933 118.22 16.4984V11.9141L116.46 15.1886C116.285 15.5208 116.1 15.7589 115.906 15.8999C115.712 16.0409 115.48 16.1099 115.211 16.1099C114.942 16.1099 114.713 16.0409 114.516 15.8999C114.321 15.7589 114.134 15.5239 113.961 15.1886L112.217 12.0081V16.4984C112.217 16.8839 112.101 17.191 111.869 17.426C111.638 17.661 111.337 17.7769 110.967 17.7769C110.598 17.7769 110.313 17.6641 110.081 17.4354C109.849 17.2066 109.733 16.8964 109.733 16.5016V8.01906C109.733 7.6023 109.859 7.26388 110.112 7.00379C110.363 6.74371 110.685 6.61523 111.077 6.61523C111.356 6.61523 111.606 6.69671 111.832 6.85652C112.057 7.01946 112.248 7.24821 112.402 7.54903L115.242 12.945L118.067 7.54903C118.386 6.92546 118.819 6.61523 119.364 6.61523C119.755 6.61523 120.074 6.74684 120.322 7.00379L120.319 7.00066Z" fill="#4D4D4D"/>
<path d="M130.688 12.9795C131.027 13.4495 131.199 14.0293 131.199 14.7155C131.199 15.3297 131.042 15.8655 130.729 16.3261C130.416 16.7868 129.968 17.144 129.386 17.3978C128.803 17.6516 128.124 17.777 127.341 17.777H123.235C122.812 17.777 122.489 17.661 122.264 17.4292C122.039 17.1973 121.926 16.8651 121.926 16.4296V7.94704C121.926 7.51461 122.039 7.17932 122.264 6.94743C122.489 6.71555 122.815 6.59961 123.235 6.59961H127.184C128.327 6.59961 129.232 6.85969 129.909 7.383C130.582 7.9063 130.92 8.61135 130.92 9.49814C130.92 10.0684 130.77 10.5729 130.472 11.0116C130.175 11.4503 129.758 11.77 129.223 11.9705C129.862 12.1711 130.35 12.5063 130.688 12.9764V12.9795ZM124.688 10.9897H126.708C127.244 10.9897 127.635 10.9051 127.879 10.7359C128.127 10.5667 128.249 10.2972 128.249 9.92744C128.249 9.53574 128.127 9.25059 127.879 9.07198C127.632 8.89337 127.24 8.80249 126.708 8.80249H124.688V10.9897ZM128.199 15.2952C128.44 15.1103 128.562 14.8064 128.562 14.3833C128.562 13.9603 128.44 13.6564 128.199 13.4715C127.958 13.2866 127.554 13.1926 126.987 13.1926H124.688V15.571H126.987C127.554 15.571 127.958 15.477 128.199 15.2921V15.2952Z" fill="#4D4D4D"/>
<path d="M132.254 17.3947C132.003 17.1409 131.875 16.793 131.875 16.3575V8.00344C131.875 7.57728 132 7.23572 132.254 6.9819C132.504 6.72809 132.849 6.59961 133.281 6.59961C133.713 6.59961 134.073 6.72809 134.33 6.9819C134.587 7.23572 134.716 7.57728 134.716 8.00344V16.3575C134.716 16.7962 134.587 17.1409 134.33 17.3947C134.073 17.6485 133.723 17.777 133.281 17.777C132.84 17.777 132.508 17.6485 132.254 17.3947Z" fill="#4D4D4D"/>
<path d="M146.475 16.5385C146.475 16.8831 146.337 17.1746 146.065 17.4158C145.792 17.6571 145.479 17.7762 145.132 17.7762C144.894 17.7762 144.677 17.7135 144.483 17.5882C144.289 17.4629 144.133 17.2748 144.02 17.0242L143.325 15.4417H138.326L137.615 17.0242C137.503 17.2748 137.346 17.4629 137.146 17.5882C136.945 17.7135 136.726 17.7762 136.491 17.7762C136.14 17.7762 135.824 17.6571 135.542 17.4158C135.26 17.1746 135.116 16.8831 135.116 16.5385C135.116 16.3504 135.163 16.1562 135.254 15.9587L139.328 7.4731C139.463 7.19108 139.66 6.97486 139.923 6.82132C140.187 6.67091 140.478 6.5957 140.794 6.5957C141.11 6.5957 141.389 6.67091 141.658 6.82132C141.925 6.97173 142.125 7.19108 142.26 7.4731L146.334 15.9587C146.428 16.1562 146.472 16.3504 146.472 16.5385H146.475ZM142.369 13.2827L140.825 9.79192L139.281 13.2827H142.366H142.369Z" fill="#4D4D4D"/>
<path d="M69.8227 29.4998C69.7475 29.4214 69.71 29.318 69.71 29.1896V22.8253C69.71 22.7031 69.7475 22.606 69.8258 22.5308C69.9041 22.4556 70.0075 22.418 70.1359 22.418H72.5348C73.2833 22.418 73.8658 22.5997 74.2792 22.9663C74.6957 23.333 74.9024 23.8469 74.9024 24.5174C74.9024 25.188 74.6926 25.7051 74.2761 26.078C73.8564 26.4477 73.277 26.6357 72.5348 26.6357H70.5399V29.1896C70.5399 29.318 70.5023 29.4214 70.4271 29.4998C70.352 29.5781 70.2518 29.6157 70.1234 29.6157C69.995 29.6157 69.8947 29.5781 69.8196 29.4998H69.8227ZM72.4534 25.9463C73.5401 25.9463 74.0819 25.47 74.0819 24.5174C74.0819 23.5648 73.5401 23.1105 72.4534 23.1105H70.5399V25.9463H72.4534Z" fill="#4D4D4D"/>
<path d="M77.1724 29.1786C76.6839 28.884 76.3081 28.4704 76.045 27.9314C75.7819 27.3925 75.6504 26.7563 75.6504 26.0262C75.6504 25.2961 75.7788 24.6475 76.0387 24.1054C76.2987 23.5633 76.6745 23.1465 77.163 22.8582C77.6516 22.5699 78.231 22.4258 78.898 22.4258C79.5651 22.4258 80.1445 22.5699 80.633 22.8582C81.1216 23.1465 81.4974 23.5633 81.7573 24.1054C82.0173 24.6475 82.1457 25.2836 82.1457 26.0168C82.1457 26.7501 82.0141 27.3862 81.7511 27.9283C81.488 28.4704 81.1122 28.8872 80.6236 29.1817C80.1351 29.4731 79.5588 29.6204 78.898 29.6204C78.2372 29.6204 77.661 29.4731 77.1724 29.1817V29.1786ZM80.6643 28.1633C81.0871 27.6619 81.297 26.9444 81.297 26.0137C81.297 25.083 81.0871 24.3654 80.6706 23.8672C80.2509 23.369 79.6622 23.1183 78.898 23.1183C78.1339 23.1183 77.5545 23.369 77.1317 23.8703C76.7089 24.3717 76.4991 25.0862 76.4991 26.0106C76.4991 26.935 76.7089 27.6494 77.1317 28.157C77.5545 28.6615 78.1433 28.9154 78.898 28.9154C79.6528 28.9154 80.2416 28.6647 80.6643 28.1602V28.1633Z" fill="#4D4D4D"/>
<path d="M84.7831 29.4986C84.7048 29.4203 84.6672 29.3169 84.6672 29.1884V23.1281H82.4907C82.3685 23.1281 82.2746 23.0968 82.2057 23.0372C82.1368 22.9777 82.1055 22.89 82.1055 22.774C82.1055 22.6581 82.1399 22.5703 82.2057 22.5108C82.2714 22.4513 82.3685 22.4199 82.4907 22.4199H87.6831C87.8053 22.4199 87.8992 22.4513 87.965 22.5108C88.0339 22.5703 88.0652 22.6581 88.0652 22.774C88.0652 22.89 88.0308 22.9777 87.965 23.0372C87.8961 23.0968 87.8021 23.1281 87.6831 23.1281H85.5066V29.1884C85.5066 29.3169 85.469 29.4203 85.3938 29.4986C85.3187 29.5769 85.2184 29.6145 85.09 29.6145C84.9616 29.6145 84.8583 29.5769 84.78 29.4986H84.7831Z" fill="#4D4D4D"/>
<path d="M88.8639 29.5025C88.7856 29.4273 88.748 29.3302 88.748 29.208V22.8312C88.748 22.709 88.7856 22.6118 88.8639 22.5366C88.9422 22.4614 89.0456 22.4238 89.174 22.4238H92.9603C93.0824 22.4238 93.1764 22.4552 93.2453 22.5147C93.311 22.5774 93.3455 22.662 93.3455 22.7685C93.3455 22.8751 93.311 22.9628 93.2453 23.0255C93.1764 23.0881 93.0824 23.1163 92.9603 23.1163H89.5686V25.6169H92.7567C92.8788 25.6169 92.9728 25.6483 93.0417 25.7078C93.1075 25.7705 93.1419 25.8551 93.1419 25.9647C93.1419 26.0744 93.1075 26.159 93.0417 26.2186C92.9728 26.2812 92.8788 26.3094 92.7567 26.3094H89.5686V28.9228H92.9603C93.0824 28.9228 93.1764 28.951 93.2453 29.0105C93.311 29.0701 93.3455 29.1547 93.3455 29.2706C93.3455 29.3803 93.311 29.4649 93.2453 29.5245C93.1764 29.5871 93.0824 29.6153 92.9603 29.6153H89.174C89.0456 29.6153 88.9422 29.5777 88.8639 29.5025Z" fill="#4D4D4D"/>
<path d="M100 22.5359C100.069 22.6142 100.1 22.7145 100.1 22.843V29.1915C100.1 29.32 100.066 29.4203 99.9938 29.4986C99.9217 29.5738 99.8246 29.6145 99.6962 29.6145C99.5678 29.6145 99.4582 29.5581 99.3611 29.4422L95.1614 23.8582V29.1915C95.1614 29.32 95.127 29.4203 95.055 29.4986C94.9829 29.5738 94.889 29.6145 94.7668 29.6145C94.6447 29.6145 94.5508 29.5769 94.485 29.4986C94.4161 29.4203 94.3848 29.32 94.3848 29.1915V22.843C94.3848 22.7176 94.4192 22.6142 94.4912 22.5359C94.5633 22.4607 94.6604 22.4199 94.7888 22.4199C94.9234 22.4199 95.0393 22.4763 95.1333 22.5923L99.3235 28.1762V22.843C99.3235 22.7176 99.358 22.6142 99.43 22.5359C99.5021 22.4607 99.596 22.4199 99.7182 22.4199C99.8403 22.4199 99.9342 22.4575 100 22.5359Z" fill="#4D4D4D"/>
<path d="M102.885 29.1829C102.393 28.8946 102.014 28.4778 101.745 27.9357C101.478 27.3936 101.344 26.7544 101.344 26.0149C101.344 25.2754 101.478 24.6455 101.745 24.1034C102.011 23.5613 102.39 23.1445 102.885 22.8563C103.376 22.568 103.962 22.4238 104.635 22.4238C105.086 22.4238 105.515 22.4959 105.916 22.6369C106.317 22.7811 106.668 22.9847 106.962 23.2511C107.069 23.3514 107.125 23.4673 107.125 23.602C107.125 23.696 107.097 23.7775 107.044 23.8465C106.99 23.9154 106.925 23.9499 106.853 23.9499C106.771 23.9499 106.674 23.9123 106.558 23.8402C106.214 23.5738 105.904 23.389 105.622 23.2824C105.343 23.1759 105.02 23.1226 104.654 23.1226C103.871 23.1226 103.27 23.3733 102.847 23.8747C102.424 24.376 102.214 25.0905 102.214 26.0149C102.214 26.9393 102.424 27.6631 102.847 28.1645C103.27 28.6659 103.871 28.9197 104.654 28.9197C105.011 28.9197 105.334 28.8664 105.615 28.7599C105.9 28.6533 106.214 28.4684 106.558 28.2021C106.674 28.13 106.771 28.0924 106.853 28.0924C106.928 28.0924 106.99 28.1269 107.044 28.1927C107.097 28.2585 107.125 28.3431 107.125 28.4434C107.125 28.575 107.072 28.6941 106.962 28.7943C106.665 29.0607 106.317 29.2644 105.916 29.4085C105.515 29.5527 105.086 29.6216 104.635 29.6216C103.959 29.6216 103.376 29.4774 102.885 29.1892V29.1829Z" fill="#4D4D4D"/>
<path d="M108.321 29.4986C108.246 29.4203 108.208 29.32 108.208 29.1915V22.843C108.208 22.7176 108.246 22.6142 108.321 22.5359C108.396 22.4607 108.496 22.4199 108.625 22.4199C108.753 22.4199 108.853 22.4575 108.928 22.5359C109.003 22.6142 109.041 22.7145 109.041 22.843V29.1915C109.041 29.32 109.003 29.4203 108.928 29.4986C108.853 29.5738 108.753 29.6145 108.625 29.6145C108.496 29.6145 108.396 29.5769 108.321 29.4986Z" fill="#4D4D4D"/>
<path d="M116.73 29.2636C116.73 29.3639 116.692 29.4485 116.614 29.5143C116.536 29.5801 116.445 29.6145 116.335 29.6145C116.166 29.6145 116.047 29.5331 115.981 29.3733L115.264 27.747H111.45L110.72 29.3733C110.651 29.5331 110.535 29.6145 110.366 29.6145C110.26 29.6145 110.163 29.5801 110.081 29.508C110 29.4391 109.959 29.3513 109.959 29.2511C109.959 29.1978 109.972 29.1445 110 29.0912L112.893 22.7019C112.934 22.6079 112.994 22.539 113.075 22.492C113.157 22.445 113.244 22.4199 113.338 22.4199C113.438 22.4199 113.529 22.445 113.611 22.4951C113.692 22.5453 113.752 22.6142 113.792 22.7019L116.686 29.0912C116.714 29.1445 116.727 29.2009 116.727 29.2605L116.73 29.2636ZM114.96 27.0638L113.351 23.4571L111.75 27.0638H114.957H114.96Z" fill="#4D4D4D"/>
<path d="M120.125 29.5057C120.046 29.4304 120.009 29.3333 120.009 29.2111V22.8312C120.009 22.709 120.046 22.6118 120.125 22.5366C120.203 22.4614 120.306 22.4238 120.435 22.4238H122.408C123.548 22.4238 124.431 22.7341 125.054 23.3576C125.677 23.9812 125.99 24.868 125.99 26.018C125.99 27.168 125.677 28.0548 125.048 28.6815C124.421 29.3082 123.541 29.6216 122.408 29.6216H120.435C120.306 29.6216 120.203 29.584 120.125 29.5088V29.5057ZM122.358 28.9009C124.205 28.9009 125.132 27.9389 125.132 26.0117C125.132 24.0846 124.208 23.132 122.358 23.132H120.839V28.8977H122.358V28.9009Z" fill="#4D4D4D"/>
<path d="M127.353 29.5057C127.275 29.4304 127.237 29.3333 127.237 29.2111V22.8312C127.237 22.709 127.275 22.6118 127.353 22.5366C127.431 22.4614 127.535 22.4238 127.663 22.4238H131.45C131.572 22.4238 131.666 22.4552 131.735 22.5147C131.8 22.5774 131.835 22.662 131.835 22.7685C131.835 22.8751 131.8 22.9628 131.735 23.0255C131.666 23.0881 131.572 23.1163 131.45 23.1163H128.058V25.6169H131.246C131.368 25.6169 131.462 25.6483 131.531 25.7078C131.597 25.7705 131.631 25.8551 131.631 25.9647C131.631 26.0744 131.597 26.159 131.531 26.2186C131.462 26.2812 131.368 26.3094 131.246 26.3094H128.058V28.9228H131.45C131.572 28.9228 131.666 28.951 131.735 29.0105C131.8 29.0701 131.835 29.1547 131.835 29.2706C131.835 29.3803 131.8 29.4649 131.735 29.5245C131.666 29.5871 131.572 29.6153 131.45 29.6153H127.663C127.535 29.6153 127.431 29.5777 127.353 29.5025V29.5057Z" fill="#4D4D4D"/>
<path d="M135.345 29.5111C135.267 29.4391 135.229 29.3482 135.229 29.2323V22.8461C135.229 22.7176 135.267 22.6142 135.342 22.5359C135.417 22.4575 135.518 22.4199 135.646 22.4199C135.774 22.4199 135.875 22.4575 135.95 22.5359C136.025 22.6142 136.063 22.7176 136.063 22.8461V28.9064H139.332C139.454 28.9064 139.548 28.9377 139.614 28.9972C139.683 29.0568 139.714 29.1476 139.714 29.2605C139.714 29.3733 139.68 29.4641 139.614 29.5237C139.545 29.5832 139.451 29.6145 139.332 29.6145H135.637C135.521 29.6145 135.427 29.5801 135.349 29.508L135.345 29.5111Z" fill="#4D4D4D"/>
<path d="M146.475 29.2636C146.475 29.3639 146.437 29.4485 146.359 29.5143C146.281 29.5801 146.19 29.6145 146.08 29.6145C145.911 29.6145 145.792 29.5331 145.726 29.3733L145.009 27.747H141.195L140.465 29.3733C140.396 29.5331 140.28 29.6145 140.111 29.6145C140.005 29.6145 139.908 29.5801 139.826 29.508C139.745 29.4391 139.704 29.3513 139.704 29.2511C139.704 29.1978 139.717 29.1445 139.745 29.0912L142.639 22.7019C142.679 22.6079 142.739 22.539 142.82 22.492C142.902 22.445 142.989 22.4199 143.083 22.4199C143.183 22.4199 143.274 22.445 143.356 22.4951C143.437 22.5453 143.497 22.6142 143.537 22.7019L146.431 29.0912C146.459 29.1445 146.472 29.2009 146.472 29.2605L146.475 29.2636ZM144.702 27.0638L143.093 23.4571L141.492 27.0638H144.699H144.702Z" fill="#4D4D4D"/>
<path d="M41.1795 31.0976C40.644 38.6965 46.9044 43.7478 53.2462 47.3419C53.7191 47.6114 54.3079 47.2699 54.3079 46.7246V43.729C54.3079 43.3091 54.0511 42.9299 53.6565 42.7826C49.3941 41.1657 46.2749 36.8539 46.5067 32.4607C46.7259 28.3401 49.6635 24.3887 53.7285 22.9065C54.0793 22.778 54.3079 22.4428 54.3079 22.073V19.3969C54.3079 18.9614 53.8225 18.7013 53.4623 18.9457C51.3421 20.384 49.0778 21.6374 46.9294 23.0507C43.9981 24.9809 41.4301 27.541 41.1827 31.0976H41.1795Z" fill="#721D3B"/>
<path d="M30.795 28.0444C29.5767 30.1596 28.7906 32.6163 29.0537 35.0511C29.3042 37.3793 30.607 39.532 32.1166 41.3338C35.4143 45.2633 39.7267 48.6099 44.1112 51.3862C46.6354 52.9844 49.2755 54.4007 52.0064 55.6353C52.0314 55.6479 52.1755 55.6823 52.2945 55.7105C52.3822 55.7293 52.473 55.7356 52.5607 55.7262L53.1902 55.6635C53.8071 55.6635 54.3051 55.1653 54.3051 54.548C54.3051 54.078 54.0389 53.6455 53.6192 53.4356L53.5942 53.4231C49.5699 51.3768 45.5863 49.0894 42.3386 46.0028C36.7484 40.6946 33.6041 32.3249 37.4312 25.2587C40.7383 19.1546 48.1386 17.2431 53.0148 12.6556C53.068 12.6054 53.1213 12.5584 53.1745 12.5146C53.9073 11.9129 54.3051 10.9979 54.3051 10.0516V7.27841C54.3051 6.90552 54.0013 6.60156 53.6286 6.60156C53.306 6.60156 52.9897 6.71124 52.7361 6.91492C49.1565 9.79465 45.6583 12.7653 42.2603 15.8361C38.1828 19.5212 33.529 23.3002 30.795 28.0444Z" fill="#721D3B"/>
<path d="M26.185 42.2179C22.74 36.9379 23.0407 30.818 26.1255 25.4503C29.9086 18.8667 36.7077 13.6023 42.1162 8.83619C42.7614 8.26902 43.3846 7.80839 44.0485 7.30075C44.3523 7.06887 44.1863 6.5957 43.8137 6.5957H13.0754C8.81936 6.5957 5.36816 10.0489 5.36816 14.3074V47.946C5.36816 52.2045 8.81936 55.6577 13.0754 55.6577H39.8175C40.2059 55.6577 40.3593 55.1563 40.0368 54.9401C39.7392 54.7427 39.4417 54.5421 39.1473 54.3385C34.3307 51.0075 29.3574 47.078 26.185 42.2148V42.2179Z" fill="#721D3B"/>
<path d="M51.9033 32.3656C51.9127 32.3154 51.9252 32.2653 51.9346 32.2151C51.944 32.1305 51.9409 32.1399 51.9033 32.3656Z" fill="#721D3B"/>
<path d="M51.9278 33.4008C51.9184 33.3475 51.9027 33.2974 51.8965 33.2441C51.9247 33.451 51.9309 33.4666 51.9278 33.4008Z" fill="#721D3B"/>
<path d="M54.7748 36.1574C56.8261 36.1574 58.4891 34.4935 58.4891 32.441C58.4891 30.3885 56.8261 28.7246 54.7748 28.7246C52.7235 28.7246 51.0605 30.3885 51.0605 32.441C51.0605 34.4935 52.7235 36.1574 54.7748 36.1574Z" fill="#721D3B"/>
</svg>
