<svg width="52" height="52" viewBox="0 0 52 52" fill="none" xmlns="http://www.w3.org/2000/svg">
<path d="M25.675 51.35C39.8549 51.35 51.35 39.8549 51.35 25.675C51.35 11.4951 39.8549 0 25.675 0C11.4951 0 0 11.4951 0 25.675C0 39.8549 11.4951 51.35 25.675 51.35Z" fill="#39A900"/>
<path d="M32.4488 32.439C29.7392 32.2668 27.5643 31.134 26.0147 28.9228C24.8366 27.2464 24.3745 25.3614 24.6191 23.3225C25.1176 19.1448 28.6337 16.0909 32.8566 16.1452C36.9436 16.1996 40.3691 19.3532 40.795 23.3678C40.9582 24.8902 40.7316 26.3492 40.0791 27.7357C39.4357 29.1132 38.4751 30.2278 37.2064 31.0706C35.9287 31.9224 34.524 32.3483 32.9563 32.439C32.9563 32.7652 32.9563 33.0824 32.9563 33.3995C32.9563 33.4449 33.0379 33.5173 33.1013 33.5355C33.8534 33.7711 34.2431 34.2151 34.2975 34.9945C34.37 36.0366 34.4153 37.0697 34.4697 38.1118C34.5331 39.2899 34.5965 40.4589 34.6419 41.637C34.6962 42.806 33.8988 43.6126 32.7297 43.6216C31.5064 43.6307 30.6817 42.8513 30.727 41.6733C30.8267 39.453 30.9445 37.2238 31.0714 35.0035C31.1167 34.2423 31.5335 33.753 32.2676 33.5355C32.331 33.5173 32.4216 33.4177 32.4307 33.3633C32.4488 33.0733 32.4398 32.7833 32.4398 32.448L32.4488 32.439ZM32.6935 16.6437C28.5159 16.6346 25.0722 20.051 25.0541 24.2105C25.036 28.4607 28.4615 31.9224 32.6844 31.9315C36.8802 31.9405 40.3238 28.4969 40.3419 24.2921C40.3601 20.0963 36.9164 16.6618 32.6935 16.6527V16.6437ZM34.0709 39.8608C33.9894 38.2931 33.9078 36.7253 33.8353 35.1485C33.8081 34.7045 33.6722 34.3148 33.2553 34.1064C32.621 33.7801 31.6423 34.0701 31.5879 35.0217C31.5517 35.6651 31.5245 36.3085 31.4882 36.9519C31.4067 38.5378 31.307 40.1236 31.2436 41.7095C31.2073 42.5614 31.8507 43.1323 32.766 43.1141C33.6178 43.096 34.1978 42.4889 34.1616 41.6642C34.1344 41.0661 34.1072 40.468 34.08 39.8608H34.0709Z" fill="white" stroke="white" stroke-width="0.453106" stroke-miterlimit="10"/>
<path d="M29.1681 35.3563V33.5076C29.1681 33.3445 29.2587 33.2176 29.4219 33.2539C29.5125 33.272 29.6484 33.417 29.6575 33.4985C29.6756 34.2688 29.6575 35.0482 29.6575 35.8184C29.6575 35.8366 29.6394 35.8456 29.6303 35.8728H10.917V12.7734H29.6484C29.6484 12.855 29.6665 12.9547 29.6665 13.0453V14.9846C29.6665 15.1658 29.6847 15.3833 29.4219 15.3833C29.1409 15.3833 29.1681 15.1658 29.1681 14.9755V13.2809H11.4154V35.3653H29.1681V35.3563Z" fill="white" stroke="white" stroke-width="0.453106" stroke-miterlimit="10"/>
<path d="M13.1107 33.6778H27.4651V32.4907C27.4651 32.3366 27.4379 32.1735 27.4833 32.0285C27.5104 31.9469 27.6373 31.8382 27.7279 31.8291C27.7914 31.8291 27.9364 31.956 27.9454 32.0194C27.9636 32.7263 27.9545 33.4422 27.9545 34.1672H12.6123V14.457H27.9545C27.9545 15.1548 27.9636 15.8435 27.9454 16.5232C27.9454 16.5957 27.8004 16.7135 27.7098 16.7316C27.5467 16.7588 27.4651 16.6229 27.4651 16.4688V14.9645H13.1107V33.6869V33.6778Z" fill="white" stroke="white" stroke-width="0.453106" stroke-miterlimit="10"/>
<path d="M16.5893 22.4955C17.0968 23.3111 16.6437 24.1086 15.964 24.2626C15.529 24.3623 15.0759 24.1992 14.8041 23.8277C14.5412 23.4742 14.5322 22.9668 14.7678 22.5952C15.0125 22.2146 15.4746 21.9971 15.9006 22.1149C16.1452 22.1784 16.254 22.0968 16.3899 21.9337C16.7796 21.4353 17.1783 20.9459 17.5771 20.4384C17.3233 20.0216 17.2689 19.5956 17.5136 19.1697C17.7402 18.7891 18.2023 18.5716 18.6101 18.6532C19.1176 18.7438 19.471 19.0791 19.5345 19.5594C19.5617 19.7859 19.6614 19.8766 19.8607 19.94C20.2232 20.0397 20.5766 20.1756 20.9391 20.2753C21.0116 20.2934 21.1385 20.2662 21.1929 20.2119C21.51 19.8494 21.8997 19.7316 22.3528 19.8494C22.4978 19.8856 22.5703 19.8403 22.6519 19.7316C23.0415 19.215 23.4312 18.7076 23.839 18.2091C23.9296 18.1004 23.9387 18.0188 23.8662 17.892C23.5943 17.4207 23.7031 16.8589 24.1018 16.5145C24.4915 16.1792 25.0714 16.1611 25.4883 16.4692C25.887 16.7683 26.0411 17.3301 25.8508 17.7832C25.6424 18.2726 25.1349 18.5444 24.6093 18.4176C24.4008 18.3723 24.3012 18.4357 24.1924 18.5807C23.8299 19.07 23.4493 19.5503 23.0778 20.0216C22.9781 20.1484 22.969 20.2391 23.0506 20.384C23.2862 20.81 23.2318 21.2359 22.9237 21.6074C22.6428 21.9609 22.1716 22.0968 21.7366 21.9518C21.2925 21.7977 21.0297 21.4715 20.9844 21.0003C20.9663 20.8553 20.9301 20.7918 20.7941 20.7465C20.3954 20.6287 20.0057 20.5019 19.616 20.375C19.4892 20.3297 19.4076 20.3387 19.3079 20.4565C18.9998 20.81 18.6101 20.9278 18.148 20.81C18.0755 20.7918 17.9395 20.8281 17.8942 20.8825C17.4593 21.4081 17.0333 21.9518 16.5893 22.4955ZM15.7012 23.7823C16.0456 23.7823 16.3084 23.5286 16.3084 23.1933C16.3084 22.8671 16.0365 22.5861 15.7103 22.5861C15.4022 22.5861 15.1212 22.858 15.1122 23.1752C15.1031 23.5014 15.375 23.7823 15.7012 23.7914V23.7823ZM24.8358 16.7411C24.5096 16.7411 24.2468 17.0039 24.2377 17.3301C24.2377 17.6563 24.5187 17.9463 24.8358 17.9463C25.153 17.9463 25.4249 17.6745 25.4339 17.3482C25.4339 17.0129 25.1621 16.7411 24.8358 16.7411ZM18.4561 20.3387C18.7914 20.3387 19.0723 20.0669 19.0723 19.7406C19.0723 19.4144 18.8004 19.1425 18.4833 19.1335C18.1661 19.1244 17.8761 19.4053 17.8761 19.7406C17.8761 20.0759 18.1389 20.3297 18.4651 20.3387H18.4561ZM22.0719 20.3025C21.7275 20.3025 21.4647 20.5744 21.4738 20.9097C21.4828 21.2359 21.7547 21.4987 22.0809 21.4896C22.4162 21.4896 22.6881 21.2087 22.679 20.8734C22.67 20.5472 22.3981 20.2934 22.0719 20.2934V20.3025Z" fill="white"/>
<path d="M16.5893 22.4955C17.0968 23.3111 16.6437 24.1086 15.964 24.2626C15.529 24.3623 15.0759 24.1992 14.8041 23.8277C14.5412 23.4742 14.5322 22.9668 14.7678 22.5952C15.0125 22.2146 15.4746 21.9971 15.9006 22.1149C16.1452 22.1784 16.254 22.0968 16.3899 21.9337C16.7796 21.4353 17.1783 20.9459 17.5771 20.4384C17.3233 20.0216 17.2689 19.5956 17.5136 19.1697C17.7402 18.7891 18.2023 18.5716 18.6101 18.6532C19.1176 18.7438 19.471 19.0791 19.5345 19.5594C19.5617 19.7859 19.6614 19.8766 19.8607 19.94C20.2232 20.0397 20.5766 20.1756 20.9391 20.2753C21.0116 20.2934 21.1385 20.2662 21.1929 20.2119C21.51 19.8494 21.8997 19.7316 22.3528 19.8494C22.4978 19.8856 22.5703 19.8403 22.6519 19.7316C23.0415 19.215 23.4312 18.7076 23.839 18.2091C23.9296 18.1004 23.9387 18.0188 23.8662 17.892C23.5943 17.4207 23.7031 16.8589 24.1018 16.5145C24.4915 16.1792 25.0714 16.1611 25.4883 16.4692C25.887 16.7683 26.0411 17.3301 25.8508 17.7832C25.6424 18.2726 25.1349 18.5444 24.6093 18.4176C24.4008 18.3723 24.3012 18.4357 24.1924 18.5807C23.8299 19.07 23.4493 19.5503 23.0778 20.0216C22.9781 20.1484 22.969 20.2391 23.0506 20.3841C23.2862 20.81 23.2318 21.2359 22.9237 21.6074C22.6428 21.9609 22.1716 22.0968 21.7366 21.9518C21.2925 21.7977 21.0297 21.4715 20.9844 21.0003C20.9663 20.8553 20.9301 20.7918 20.7941 20.7465C20.3954 20.6287 20.0057 20.5019 19.616 20.375C19.4892 20.3297 19.4076 20.3387 19.3079 20.4565C18.9998 20.81 18.6101 20.9278 18.148 20.81C18.0755 20.7918 17.9395 20.8281 17.8942 20.8825C17.4593 21.4081 17.0333 21.9518 16.5893 22.4955ZM16.5893 22.4955V22.4774M15.7012 23.7823C16.0456 23.7823 16.3084 23.5286 16.3084 23.1933C16.3084 22.8671 16.0365 22.5861 15.7103 22.5861C15.4022 22.5861 15.1212 22.858 15.1122 23.1752C15.1031 23.5014 15.375 23.7823 15.7012 23.7914V23.7823ZM24.8358 16.7411C24.5096 16.7411 24.2468 17.0039 24.2377 17.3301C24.2377 17.6563 24.5187 17.9463 24.8358 17.9463C25.153 17.9463 25.4249 17.6745 25.4339 17.3482C25.4339 17.0129 25.1621 16.7411 24.8358 16.7411ZM18.4561 20.3387C18.7914 20.3387 19.0723 20.0669 19.0723 19.7406C19.0723 19.4144 18.8004 19.1425 18.4833 19.1335C18.1661 19.1244 17.8761 19.4053 17.8761 19.7406C17.8761 20.0759 18.1389 20.3297 18.4651 20.3387H18.4561ZM22.0719 20.3025C21.7275 20.3025 21.4647 20.5744 21.4738 20.9097C21.4828 21.2359 21.7547 21.4987 22.0809 21.4896C22.4162 21.4896 22.6881 21.2087 22.679 20.8734C22.67 20.5472 22.3981 20.2934 22.0719 20.2934V20.3025Z" stroke="white" stroke-width="0.453106" stroke-miterlimit="10"/>
<path d="M20.2863 31.0156H24.4911C24.5636 31.0156 24.6633 30.9885 24.7177 31.0247C24.8083 31.0881 24.9261 31.1878 24.9261 31.2694C24.9261 31.3509 24.7992 31.4416 24.7177 31.5141C24.6814 31.5413 24.5999 31.5231 24.5455 31.5231H16.018C15.9637 31.5231 15.9002 31.5413 15.864 31.5231C15.7734 31.4506 15.6465 31.36 15.6465 31.2785C15.6465 31.1969 15.7824 31.0972 15.873 31.0338C15.9183 30.9975 16.009 31.0247 16.0724 31.0247H20.2954L20.2863 31.0156Z" fill="white" stroke="white" stroke-width="0.453106" stroke-miterlimit="10"/>
<path d="M20.5495 26.5387H17.7946C17.7131 26.5387 17.6043 26.5568 17.5409 26.5115C17.4593 26.4571 17.3506 26.3574 17.3506 26.2758C17.3506 26.1943 17.4593 26.0946 17.5409 26.0402C17.6043 26.004 17.704 26.0221 17.7946 26.0221H23.4585C23.6125 26.0402 23.7213 26.1037 23.7213 26.2758C23.7213 26.448 23.6035 26.5205 23.4494 26.5205C23.0597 26.5205 22.6791 26.5205 22.2894 26.5205H20.5405L20.5495 26.5387Z" fill="white" stroke="white" stroke-width="0.453106" stroke-miterlimit="10"/>
<path d="M18.6738 28.5144H21.329C21.5193 28.5144 21.7005 28.5325 21.6915 28.7682C21.6915 28.9947 21.5012 29.0128 21.3109 29.0128H16.0005C15.9461 29.0128 15.8826 29.031 15.8464 29.0038C15.7558 28.9313 15.6289 28.8407 15.6289 28.75C15.6289 28.6685 15.7739 28.5325 15.8645 28.5235C16.2361 28.4963 16.5986 28.5054 16.9701 28.5054H18.6738V28.5144Z" fill="white" stroke="white" stroke-width="0.453106" stroke-miterlimit="10"/>
<path d="M23.5952 28.5149H24.293C24.4561 28.5149 24.5739 28.6056 24.5467 28.7596C24.5286 28.8502 24.3927 28.9952 24.3111 28.9952C23.8217 29.0224 23.3324 29.0224 22.8521 28.9952C22.7705 28.9952 22.689 28.8412 22.6074 28.7506C22.689 28.669 22.7705 28.5331 22.8612 28.5149C23.1058 28.4787 23.3596 28.5059 23.6043 28.5059L23.5952 28.5149Z" fill="white" stroke="white" stroke-width="0.453106" stroke-miterlimit="10"/>
<path d="M32.6665 30.7719C28.9782 30.6994 26.1146 27.7814 26.2052 24.1112C26.2958 20.441 29.3498 17.6861 32.9112 17.7858C36.382 17.8855 39.2366 20.8488 39.1822 24.3468C39.1278 27.8901 36.2823 30.7628 32.6665 30.7628V30.7719ZM38.6838 24.2743C38.6838 20.9757 36.0104 18.3114 32.7118 18.3114C29.4132 18.3114 26.7127 20.9938 26.7127 24.2924C26.7127 27.591 29.4223 30.2916 32.7028 30.2916C35.9833 30.2916 38.6838 27.582 38.6838 24.2834V24.2743Z" fill="white" stroke="white" stroke-width="0.453106" stroke-miterlimit="10"/>
<path d="M32.0769 25.5783C32.8291 24.817 33.545 24.0921 34.2609 23.3671C34.5418 23.0771 34.8318 22.7962 35.1127 22.5153C35.2396 22.3884 35.3755 22.325 35.5114 22.47C35.6474 22.6059 35.593 22.7509 35.4661 22.8778C34.4059 23.938 33.3547 24.9892 32.2944 26.0495C32.1403 26.2036 31.9863 26.2036 31.8232 26.0404C31.3247 25.542 30.8263 25.0436 30.3279 24.5452C30.201 24.4183 30.1376 24.2824 30.2645 24.1374C30.4095 23.9743 30.5545 24.0558 30.6813 24.1827C31.1254 24.6358 31.5694 25.0889 32.0588 25.5783H32.0769Z" fill="white" stroke="white" stroke-width="1.81243" stroke-miterlimit="10"/>
</svg>
