<svg width="52" height="52" viewBox="0 0 52 52" fill="none" xmlns="http://www.w3.org/2000/svg">
<path d="M25.3762 50.7525C39.3912 50.7525 50.7525 39.3912 50.7525 25.3762C50.7525 11.3613 39.3912 0 25.3762 0C11.3613 0 0 11.3613 0 25.3762C0 39.3912 11.3613 50.7525 25.3762 50.7525Z" fill="#39A900"/>
<path d="M14.5124 27.2703C14.5124 23.7307 14.5124 20.191 14.5124 16.6514C14.5124 15.0778 15.5491 13.8263 17.0814 13.5454C17.2632 13.5124 17.4532 13.5 17.6431 13.5C22.4673 13.5 27.2914 13.5 32.1156 13.5C33.9536 13.5 35.3 14.8506 35.3 16.6927C35.3 23.7844 35.3 30.8802 35.3 37.9718C35.3 38.0379 35.3 38.1081 35.3 38.1742C35.2918 38.9218 34.5896 39.3431 33.9412 38.9796C32.5162 38.1742 31.0954 37.3605 29.6705 36.551C28.0721 35.6424 26.4737 34.7337 24.8752 33.8168C24.7555 33.7466 24.6687 33.7466 24.549 33.8168C21.6867 35.5226 18.812 37.216 15.9539 38.9342C15.2476 39.3596 14.4959 38.9011 14.5 38.1122C14.5207 34.4983 14.5083 30.8843 14.5083 27.2703H14.5124ZM16.2884 36.6419C16.3875 36.5923 16.4412 36.5675 16.4908 36.5345C19.0392 35.0187 21.5917 33.507 24.1401 31.9912C24.5242 31.764 24.8794 31.7599 25.2635 31.9829C27.816 33.4451 30.3768 34.903 32.9334 36.3569C33.1151 36.4601 33.3051 36.5593 33.5199 36.679C33.5199 36.4354 33.5199 36.2412 33.5199 36.0471C33.5199 29.5998 33.5199 23.1566 33.5199 16.7092C33.5199 15.846 32.9664 15.2719 32.128 15.2719C27.3121 15.2719 22.4962 15.2719 17.6803 15.2719C16.8501 15.2719 16.2884 15.8501 16.2884 16.6844C16.2884 18.2085 16.2884 19.7326 16.2884 21.2566C16.2884 26.246 16.2884 31.2312 16.2884 36.2206V36.6377V36.6419Z" fill="white"/>
<path d="M21.4906 20.736C19.6692 20.736 17.8477 20.736 16.0304 20.736C15.3902 20.736 14.9978 20.1412 15.2704 19.6001C15.4274 19.2862 15.6958 19.1582 16.0428 19.1582C17.1125 19.1582 18.1781 19.1582 19.2479 19.1582C21.8128 19.1582 24.3777 19.1582 26.9426 19.1582C27.5745 19.1582 27.9751 19.7199 27.7314 20.2569C27.5786 20.5955 27.2978 20.736 26.926 20.736C25.1128 20.736 23.3038 20.736 21.4906 20.736Z" fill="white"/>
</svg>
